<svg xmlns="http://www.w3.org/2000/svg" width="30.611" height="25.605" viewBox="0 0 30.611 25.605">
  <g id="users" transform="translate(1.25 1.355)">
    <path id="Path" d="M20.444,7.667V5.111A5.111,5.111,0,0,0,15.333,0H5.111A5.111,5.111,0,0,0,0,5.111V7.667" transform="translate(0 15.333)" fill="none" stroke="#30b179" stroke-linecap="round" stroke-linejoin="round" stroke-miterlimit="10" stroke-width="2.5"/>
    <circle id="Oval" cx="5.111" cy="5.111" r="5.111" stroke-width="2.5" transform="translate(5.111 0)" stroke="#30b179" stroke-linecap="round" stroke-linejoin="round" stroke-miterlimit="10" fill="none"/>
    <path id="Path-2" data-name="Path" stroke="#30b179" d="M3.833,7.5V4.945A5.111,5.111,0,0,0,0,0" fill="none" transform="translate(24.278 15.499)" stroke-linecap="round" stroke-linejoin="round" stroke-miterlimit="10" stroke-width="2.5" opacity="0.3"/>
    <path id="Path-3" data-name="Path" stroke="#30b179" d="M0,0A5.111,5.111,0,0,1,3.843,4.951,5.111,5.111,0,0,1,0,9.9" fill="none" transform="translate(19.167 0.166)" stroke-linecap="round" stroke-linejoin="round" stroke-miterlimit="10" stroke-width="2.5" opacity="0.3"/>
  </g>
</svg>
