<svg xmlns="http://www.w3.org/2000/svg" xmlns:xlink="http://www.w3.org/1999/xlink" width="142.096" height="49.528" viewBox="0 0 142.096 49.528">
  <defs>
    <clipPath id="clip-path">
      <path id="Clip_2" data-name="Clip 2" d="M0,0H47.8V47.62H0Z" transform="translate(0.012 0.191)" fill="none"/>
    </clipPath>
  </defs>
  <g id="Logo_rgb_1_" data-name="Logo rgb (1)" transform="translate(-0.012 0.262)">
    <g id="Group_3" data-name="Group 3">
      <path id="Clip_2-2" data-name="Clip 2" d="M0,0H47.8V47.62H0Z" transform="translate(0.012 0.191)" fill="none"/>
      <g id="Group_3-2" data-name="Group 3" clip-path="url(#clip-path)">
        <path id="Fill_1" data-name="Fill 1" d="M45.833,47.622h0l-45.364,0H0V24.47H.935V46.689H44.9l.935.931Zm1.981,0h-.661L25.8,26.356V25.039L46.88,46.03V25.077h.934V47.62ZM24.375,35.055H23.44V12.566h.935V35.054Zm23.44-11.9H46.88V.931H2.918L1.983,0H47.814V23.15Zm-25.8-.57,0,0L.935,1.589V22.544H0V0H.661L22.012,21.265v1.316Z" transform="translate(0 0.191)" fill="#fff"/>
      </g>
    </g>
    <path id="Fill_4" data-name="Fill 4" d="M5.6,49v0L.141,36.628H1.869l3.747,8.477,3.776-8.477H11.14L5.6,49Zm55.042-.189a3.181,3.181,0,0,1-2.7-1.522l1.289-.623a2.016,2.016,0,0,0,1.408.658,1.447,1.447,0,0,0,.888-.276.792.792,0,0,0,.381-.645c0-.428-.448-.82-1.333-1.166a5.229,5.229,0,0,1-1.847-1.05,1.822,1.822,0,0,1-.513-1.31,2.081,2.081,0,0,1,.728-1.615,2.684,2.684,0,0,1,1.827-.642,4.052,4.052,0,0,1,2.462,1.137l-1.091.959a5.477,5.477,0,0,0-.733-.455,1.623,1.623,0,0,0-.731-.155c-.662,0-1,.246-1,.733,0,.348.425.691,1.263,1.021a4.965,4.965,0,0,1,1.818,1.085,2.023,2.023,0,0,1,.554,1.433,2.25,2.25,0,0,1-.8,1.7A2.7,2.7,0,0,1,60.639,48.811Zm-7.917,0a3.906,3.906,0,0,1-2.892-1.185,4.05,4.05,0,0,1-1.164-2.944,3.968,3.968,0,0,1,1.176-2.855,4,4,0,0,1,5.745.019,4.338,4.338,0,0,1,1.174,3.186H50.147a2.613,2.613,0,0,0,.985,1.743,2.807,2.807,0,0,0,1.667.549,2.9,2.9,0,0,0,2.327-1.156l1.193.9A4.322,4.322,0,0,1,52.722,48.811Zm0-6.689a2.485,2.485,0,0,0-2.4,1.6h4.735A2.512,2.512,0,0,0,52.722,42.122ZM37.441,48.811a3.272,3.272,0,0,1-2.433-.94,3.354,3.354,0,0,1-.93-2.453V40.835h1.634v4.373c0,1.342.6,2.023,1.773,2.023a1.547,1.547,0,0,0,1.25-.54,2.2,2.2,0,0,0,.462-1.483V40.835h1.616v4.636a3.249,3.249,0,0,1-.949,2.4A3.312,3.312,0,0,1,37.441,48.811Zm-22.384,0a3.906,3.906,0,0,1-2.892-1.185A4.05,4.05,0,0,1,11,44.681a3.971,3.971,0,0,1,1.176-2.855,4,4,0,0,1,5.745.019A4.338,4.338,0,0,1,19.1,45.031H12.483a2.608,2.608,0,0,0,.984,1.743,2.807,2.807,0,0,0,1.667.549,2.9,2.9,0,0,0,2.327-1.156l1.193.9A4.322,4.322,0,0,1,15.057,48.811Zm0-6.689a2.485,2.485,0,0,0-2.4,1.6h4.735A2.512,2.512,0,0,0,15.057,42.122ZM22.2,48.6H20.589V40.835h1.6v1.287a6.518,6.518,0,0,1,1.279-1.143,2.349,2.349,0,0,1,1.276-.359,2.558,2.558,0,0,1,1.8.693,2.226,2.226,0,0,1,.747,1.676v5.606H25.651V43.467a1.405,1.405,0,0,0-1.445-1.458A1.8,1.8,0,0,0,22.8,42.7a2.487,2.487,0,0,0-.593,1.669V48.6Zm22.346,0H42.916V40.835h1.6v1.6a4.98,4.98,0,0,1,1.067-1.387,2.074,2.074,0,0,1,1.356-.427,2.884,2.884,0,0,1,.676.112l-.5,1.638a3.91,3.91,0,0,0-.622-.1,1.862,1.862,0,0,0-1.384.578,1.99,1.99,0,0,0-.558,1.445v4.3Zm-13.159,0H29.758V42.331H28.472V40.815h1.286V38.578h1.634v2.257h1.615v1.5H31.392v6.264Zm3.032-17.783v0l-3.9-8.05h1.708l2.216,4.486L36.6,22.76h1.728l-3.9,8.05Zm28.459-.076a4.158,4.158,0,0,1-2.982-1.23,3.937,3.937,0,0,1-1.263-2.9,3.881,3.881,0,0,1,1.254-2.826,4,4,0,0,1,2.878-1.237,4.056,4.056,0,0,1,2.921,1.218,3.867,3.867,0,0,1,1.25,2.845,4.022,4.022,0,0,1-1.225,2.884A3.877,3.877,0,0,1,62.883,30.736Zm-.055-6.573A2.542,2.542,0,0,0,61,24.9a2.375,2.375,0,0,0-.766,1.763,2.293,2.293,0,0,0,.776,1.711,2.568,2.568,0,0,0,1.817.735,2.455,2.455,0,0,0,1.773-.754,2.391,2.391,0,0,0,.763-1.75,2.312,2.312,0,0,0-.753-1.715A2.473,2.473,0,0,0,62.828,24.163Zm-19.98,6.573a3.415,3.415,0,0,1-2.615-1.2,4.238,4.238,0,0,1-1.084-2.925,4.148,4.148,0,0,1,1.093-2.845,3.372,3.372,0,0,1,2.569-1.218,3.252,3.252,0,0,1,1.728.5,3.562,3.562,0,0,1,1.269,1.3V22.76h1.635v7.761H45.807V28.979A3.512,3.512,0,0,1,42.848,30.736Zm.593-6.65a2.51,2.51,0,0,0-1.8.751,2.414,2.414,0,0,0-.769,1.769,2.6,2.6,0,0,0,.751,1.872,2.548,2.548,0,0,0,3.645.006,2.579,2.579,0,0,0-1.822-4.4ZM25.6,30.736a4.157,4.157,0,0,1-2.981-1.23,3.934,3.934,0,0,1-1.264-2.9,3.884,3.884,0,0,1,1.254-2.826,4,4,0,0,1,2.879-1.237,4.055,4.055,0,0,1,2.92,1.218,3.864,3.864,0,0,1,1.251,2.845,4.022,4.022,0,0,1-1.225,2.884A3.878,3.878,0,0,1,25.6,30.736Zm-.054-6.573a2.542,2.542,0,0,0-1.827.738,2.373,2.373,0,0,0-.767,1.763,2.3,2.3,0,0,0,.776,1.711,2.572,2.572,0,0,0,1.818.735,2.455,2.455,0,0,0,1.773-.754,2.39,2.39,0,0,0,.762-1.75,2.309,2.309,0,0,0-.753-1.715A2.472,2.472,0,0,0,25.548,24.163Zm44.371,6.359H68.3V22.76h1.6v1.287A6.552,6.552,0,0,1,71.178,22.9a2.349,2.349,0,0,1,1.276-.36,2.556,2.556,0,0,1,1.8.694A2.223,2.223,0,0,1,75,24.914V30.52H73.365V25.393a1.427,1.427,0,0,0-.408-1.043,1.4,1.4,0,0,0-1.039-.415,1.8,1.8,0,0,0-1.407.694,2.483,2.483,0,0,0-.593,1.669v4.223Zm-55.155,0H13.149V22.76h1.6v1.287A6.518,6.518,0,0,1,16.025,22.9a2.349,2.349,0,0,1,1.276-.36,2.556,2.556,0,0,1,1.8.694,2.226,2.226,0,0,1,.747,1.676V30.52H18.211V25.393a1.43,1.43,0,0,0-.407-1.043,1.4,1.4,0,0,0-1.039-.415,1.8,1.8,0,0,0-1.408.694,2.487,2.487,0,0,0-.593,1.669v4.223Zm-8.34,0H4.808V22.76H6.4v1.287A6.551,6.551,0,0,1,7.683,22.9a2.349,2.349,0,0,1,1.276-.36,2.556,2.556,0,0,1,1.8.694,2.223,2.223,0,0,1,.747,1.676V30.52H9.87V25.393a1.427,1.427,0,0,0-.408-1.043,1.4,1.4,0,0,0-1.039-.415,1.8,1.8,0,0,0-1.407.694A2.483,2.483,0,0,0,6.424,26.3v4.223Zm50.291,0H55.1V22.76h1.616v7.76Zm-4.744,0H50.337V24.256H49.051V22.74h1.286V20.5h1.634V22.76h1.616v1.5H51.971V30.52Zm-49.237,0H1.119V18.537H2.734V30.52Zm53.173-9.059a1.234,1.234,0,0,1-.894-.369,1.223,1.223,0,0,1,0-1.763,1.233,1.233,0,0,1,.894-.373,1.266,1.266,0,0,1,1.247,1.253,1.2,1.2,0,0,1-.369.883A1.214,1.214,0,0,1,55.907,21.462ZM24.891,16.087H23.257V4.684h1.616V6.245a3.51,3.51,0,0,1,3.007-1.776,3.392,3.392,0,0,1,2.587,1.2A4.146,4.146,0,0,1,31.55,8.532a4.221,4.221,0,0,1-1.1,2.909A3.4,3.4,0,0,1,27.86,12.66a3.3,3.3,0,0,1-1.657-.449A3.629,3.629,0,0,1,24.891,10.9v5.181ZM27.257,5.972a2.529,2.529,0,0,0-1.833.764,2.435,2.435,0,0,0-.776,1.8,2.546,2.546,0,0,0,.766,1.842,2.448,2.448,0,0,0,1.808.784,2.635,2.635,0,0,0,2.619-2.626,2.459,2.459,0,0,0-.769-1.792A2.5,2.5,0,0,0,27.257,5.972Zm-12.9,10.114H12.726V4.684h1.615V6.245a3.512,3.512,0,0,1,3.007-1.776,3.393,3.393,0,0,1,2.587,1.2A4.15,4.15,0,0,1,21.02,8.532a4.218,4.218,0,0,1-1.1,2.909,3.392,3.392,0,0,1-2.59,1.219,3.3,3.3,0,0,1-1.657-.449A3.629,3.629,0,0,1,14.361,10.9v5.181ZM16.727,5.972a2.53,2.53,0,0,0-1.834.764,2.438,2.438,0,0,0-.776,1.8,2.546,2.546,0,0,0,.766,1.842,2.451,2.451,0,0,0,1.808.784A2.635,2.635,0,0,0,19.31,8.532a2.456,2.456,0,0,0-.77-1.792A2.5,2.5,0,0,0,16.727,5.972ZM54.853,12.66a3.37,3.37,0,0,1-2.593-1.213,4.261,4.261,0,0,1-1.081-2.915,4.119,4.119,0,0,1,1.1-2.865,3.455,3.455,0,0,1,2.619-1.2,3.087,3.087,0,0,1,1.7.508A3.8,3.8,0,0,1,57.857,6.3V.234h1.615V12.445h-1.6V10.827A3.473,3.473,0,0,1,54.853,12.66Zm.619-6.688a2.549,2.549,0,0,0-1.847.748,2.465,2.465,0,0,0-.753,1.831,2.5,2.5,0,0,0,.769,1.811,2.46,2.46,0,0,0,1.792.777,2.518,2.518,0,0,0,1.853-.754,2.565,2.565,0,0,0,0-3.644A2.489,2.489,0,0,0,55.472,5.972ZM45.535,12.66a3.9,3.9,0,0,1-2.891-1.184A4.053,4.053,0,0,1,41.48,8.532a3.968,3.968,0,0,1,1.176-2.855A4,4,0,0,1,48.4,5.7a4.337,4.337,0,0,1,1.174,3.185H42.961a2.614,2.614,0,0,0,.985,1.744,2.813,2.813,0,0,0,1.667.549,2.9,2.9,0,0,0,2.327-1.156l1.193.9A4.324,4.324,0,0,1,45.535,12.66Zm0-6.688a2.484,2.484,0,0,0-2.4,1.6h4.735A2.512,2.512,0,0,0,45.535,5.972ZM1.7,12.446H0L5.6,0l5.654,12.444H9.544L8.142,9.38H3.062L1.7,12.445ZM5.6,3.754,3.674,8.014h3.85ZM39.48,12.445H37.864V4.684H39.48v7.76Zm-4.039,0H33.806V.234h1.635v12.21Zm3.231-9.058a1.235,1.235,0,0,1-.895-.369,1.223,1.223,0,0,1,0-1.763,1.234,1.234,0,0,1,.895-.373,1.216,1.216,0,0,1,.878.373,1.208,1.208,0,0,1,.368.879,1.258,1.258,0,0,1-1.247,1.253Z" transform="translate(67)" fill="#fff"/>
    <path id="Stroke_5" data-name="Stroke 5" d="M5.6,49v0L.141,36.628H1.869l3.747,8.477,3.776-8.477H11.14L5.6,49Zm55.042-.189a3.181,3.181,0,0,1-2.7-1.522l1.289-.623a2.016,2.016,0,0,0,1.408.658,1.447,1.447,0,0,0,.888-.276.792.792,0,0,0,.381-.645c0-.428-.448-.82-1.333-1.166a5.229,5.229,0,0,1-1.847-1.05,1.822,1.822,0,0,1-.513-1.31,2.081,2.081,0,0,1,.728-1.615,2.684,2.684,0,0,1,1.827-.642,4.052,4.052,0,0,1,2.462,1.137l-1.091.959a5.477,5.477,0,0,0-.733-.455,1.623,1.623,0,0,0-.731-.155c-.662,0-1,.246-1,.733,0,.348.425.691,1.263,1.021a4.965,4.965,0,0,1,1.818,1.085,2.023,2.023,0,0,1,.554,1.433,2.25,2.25,0,0,1-.8,1.7A2.7,2.7,0,0,1,60.639,48.811Zm-7.917,0a3.906,3.906,0,0,1-2.892-1.185,4.05,4.05,0,0,1-1.164-2.944,3.968,3.968,0,0,1,1.176-2.855,4,4,0,0,1,5.745.019,4.338,4.338,0,0,1,1.174,3.186H50.147a2.613,2.613,0,0,0,.985,1.743,2.807,2.807,0,0,0,1.667.549,2.9,2.9,0,0,0,2.327-1.156l1.193.9A4.322,4.322,0,0,1,52.722,48.811Zm0-6.689a2.485,2.485,0,0,0-2.4,1.6h4.735A2.512,2.512,0,0,0,52.722,42.122ZM37.441,48.811a3.272,3.272,0,0,1-2.433-.94,3.354,3.354,0,0,1-.93-2.453V40.835h1.634v4.373c0,1.342.6,2.023,1.773,2.023a1.547,1.547,0,0,0,1.25-.54,2.2,2.2,0,0,0,.462-1.483V40.835h1.616v4.636a3.249,3.249,0,0,1-.949,2.4A3.312,3.312,0,0,1,37.441,48.811Zm-22.384,0a3.906,3.906,0,0,1-2.892-1.185A4.05,4.05,0,0,1,11,44.681a3.971,3.971,0,0,1,1.176-2.855,4,4,0,0,1,5.745.019A4.338,4.338,0,0,1,19.1,45.031H12.483a2.608,2.608,0,0,0,.984,1.743,2.807,2.807,0,0,0,1.667.549,2.9,2.9,0,0,0,2.327-1.156l1.193.9A4.322,4.322,0,0,1,15.057,48.811Zm0-6.689a2.485,2.485,0,0,0-2.4,1.6h4.735A2.512,2.512,0,0,0,15.057,42.122ZM22.2,48.6H20.589V40.835h1.6v1.287a6.518,6.518,0,0,1,1.279-1.143,2.349,2.349,0,0,1,1.276-.359,2.558,2.558,0,0,1,1.8.693,2.226,2.226,0,0,1,.747,1.676v5.606H25.651V43.467a1.405,1.405,0,0,0-1.445-1.458A1.8,1.8,0,0,0,22.8,42.7a2.487,2.487,0,0,0-.593,1.669V48.6Zm22.346,0H42.916V40.835h1.6v1.6a4.98,4.98,0,0,1,1.067-1.387,2.074,2.074,0,0,1,1.356-.427,2.884,2.884,0,0,1,.676.112l-.5,1.638a3.91,3.91,0,0,0-.622-.1,1.862,1.862,0,0,0-1.384.578,1.99,1.99,0,0,0-.558,1.445v4.3Zm-13.159,0H29.758V42.331H28.472V40.815h1.286V38.578h1.634v2.257h1.615v1.5H31.392v6.264Zm3.032-17.783v0l-3.9-8.05h1.708l2.216,4.486L36.6,22.76h1.728l-3.9,8.05Zm28.459-.076a4.158,4.158,0,0,1-2.982-1.23,3.937,3.937,0,0,1-1.263-2.9,3.881,3.881,0,0,1,1.254-2.826,4,4,0,0,1,2.878-1.237,4.056,4.056,0,0,1,2.921,1.218,3.867,3.867,0,0,1,1.25,2.845,4.022,4.022,0,0,1-1.225,2.884A3.877,3.877,0,0,1,62.883,30.736Zm-.055-6.573A2.542,2.542,0,0,0,61,24.9a2.375,2.375,0,0,0-.766,1.763,2.293,2.293,0,0,0,.776,1.711,2.568,2.568,0,0,0,1.817.735,2.455,2.455,0,0,0,1.773-.754,2.391,2.391,0,0,0,.763-1.75,2.312,2.312,0,0,0-.753-1.715A2.473,2.473,0,0,0,62.828,24.163Zm-19.98,6.573a3.415,3.415,0,0,1-2.615-1.2,4.238,4.238,0,0,1-1.084-2.925,4.148,4.148,0,0,1,1.093-2.845,3.372,3.372,0,0,1,2.569-1.218,3.252,3.252,0,0,1,1.728.5,3.562,3.562,0,0,1,1.269,1.3V22.76h1.635v7.761H45.807V28.979A3.512,3.512,0,0,1,42.848,30.736Zm.593-6.65a2.51,2.51,0,0,0-1.8.751,2.414,2.414,0,0,0-.769,1.769,2.6,2.6,0,0,0,.751,1.872,2.548,2.548,0,0,0,3.645.006,2.579,2.579,0,0,0-1.822-4.4ZM25.6,30.736a4.157,4.157,0,0,1-2.981-1.23,3.934,3.934,0,0,1-1.264-2.9,3.884,3.884,0,0,1,1.254-2.826,4,4,0,0,1,2.879-1.237,4.055,4.055,0,0,1,2.92,1.218,3.864,3.864,0,0,1,1.251,2.845,4.022,4.022,0,0,1-1.225,2.884A3.878,3.878,0,0,1,25.6,30.736Zm-.054-6.573a2.542,2.542,0,0,0-1.827.738,2.373,2.373,0,0,0-.767,1.763,2.3,2.3,0,0,0,.776,1.711,2.572,2.572,0,0,0,1.818.735,2.455,2.455,0,0,0,1.773-.754,2.39,2.39,0,0,0,.762-1.75,2.309,2.309,0,0,0-.753-1.715A2.472,2.472,0,0,0,25.548,24.163Zm44.371,6.359H68.3V22.76h1.6v1.287A6.552,6.552,0,0,1,71.178,22.9a2.349,2.349,0,0,1,1.276-.36,2.556,2.556,0,0,1,1.8.694A2.223,2.223,0,0,1,75,24.914V30.52H73.365V25.393a1.427,1.427,0,0,0-.408-1.043,1.4,1.4,0,0,0-1.039-.415,1.8,1.8,0,0,0-1.407.694,2.483,2.483,0,0,0-.593,1.669v4.223Zm-55.155,0H13.149V22.76h1.6v1.287A6.518,6.518,0,0,1,16.025,22.9a2.349,2.349,0,0,1,1.276-.36,2.556,2.556,0,0,1,1.8.694,2.226,2.226,0,0,1,.747,1.676V30.52H18.211V25.393a1.43,1.43,0,0,0-.407-1.043,1.4,1.4,0,0,0-1.039-.415,1.8,1.8,0,0,0-1.408.694,2.487,2.487,0,0,0-.593,1.669v4.223Zm-8.34,0H4.808V22.76H6.4v1.287A6.551,6.551,0,0,1,7.683,22.9a2.349,2.349,0,0,1,1.276-.36,2.556,2.556,0,0,1,1.8.694,2.223,2.223,0,0,1,.747,1.676V30.52H9.87V25.393a1.427,1.427,0,0,0-.408-1.043,1.4,1.4,0,0,0-1.039-.415,1.8,1.8,0,0,0-1.407.694A2.483,2.483,0,0,0,6.424,26.3v4.223Zm50.291,0H55.1V22.76h1.616v7.76Zm-4.744,0H50.337V24.256H49.051V22.74h1.286V20.5h1.634V22.76h1.616v1.5H51.971V30.52Zm-49.237,0H1.119V18.537H2.734V30.52Zm53.173-9.059a1.234,1.234,0,0,1-.894-.369,1.223,1.223,0,0,1,0-1.763,1.233,1.233,0,0,1,.894-.373,1.266,1.266,0,0,1,1.247,1.253,1.2,1.2,0,0,1-.369.883A1.214,1.214,0,0,1,55.907,21.462ZM24.891,16.087H23.257V4.684h1.616V6.245a3.51,3.51,0,0,1,3.007-1.776,3.392,3.392,0,0,1,2.587,1.2A4.146,4.146,0,0,1,31.55,8.532a4.221,4.221,0,0,1-1.1,2.909A3.4,3.4,0,0,1,27.86,12.66a3.3,3.3,0,0,1-1.657-.449A3.629,3.629,0,0,1,24.891,10.9v5.181ZM27.257,5.972a2.529,2.529,0,0,0-1.833.764,2.435,2.435,0,0,0-.776,1.8,2.546,2.546,0,0,0,.766,1.842,2.448,2.448,0,0,0,1.808.784,2.635,2.635,0,0,0,2.619-2.626,2.459,2.459,0,0,0-.769-1.792A2.5,2.5,0,0,0,27.257,5.972Zm-12.9,10.114H12.726V4.684h1.615V6.245a3.512,3.512,0,0,1,3.007-1.776,3.393,3.393,0,0,1,2.587,1.2A4.15,4.15,0,0,1,21.02,8.532a4.218,4.218,0,0,1-1.1,2.909,3.392,3.392,0,0,1-2.59,1.219,3.3,3.3,0,0,1-1.657-.449A3.629,3.629,0,0,1,14.361,10.9v5.181ZM16.727,5.972a2.53,2.53,0,0,0-1.834.764,2.438,2.438,0,0,0-.776,1.8,2.546,2.546,0,0,0,.766,1.842,2.451,2.451,0,0,0,1.808.784A2.635,2.635,0,0,0,19.31,8.532a2.456,2.456,0,0,0-.77-1.792A2.5,2.5,0,0,0,16.727,5.972ZM54.853,12.66a3.37,3.37,0,0,1-2.593-1.213,4.261,4.261,0,0,1-1.081-2.915,4.119,4.119,0,0,1,1.1-2.865,3.455,3.455,0,0,1,2.619-1.2,3.087,3.087,0,0,1,1.7.508A3.8,3.8,0,0,1,57.857,6.3V.234h1.615V12.445h-1.6V10.827A3.473,3.473,0,0,1,54.853,12.66Zm.619-6.688a2.549,2.549,0,0,0-1.847.748,2.465,2.465,0,0,0-.753,1.831,2.5,2.5,0,0,0,.769,1.811,2.46,2.46,0,0,0,1.792.777,2.518,2.518,0,0,0,1.853-.754,2.565,2.565,0,0,0,0-3.644A2.489,2.489,0,0,0,55.472,5.972ZM45.535,12.66a3.9,3.9,0,0,1-2.891-1.184A4.053,4.053,0,0,1,41.48,8.532a3.968,3.968,0,0,1,1.176-2.855A4,4,0,0,1,48.4,5.7a4.337,4.337,0,0,1,1.174,3.185H42.961a2.614,2.614,0,0,0,.985,1.744,2.813,2.813,0,0,0,1.667.549,2.9,2.9,0,0,0,2.327-1.156l1.193.9A4.324,4.324,0,0,1,45.535,12.66Zm0-6.688a2.484,2.484,0,0,0-2.4,1.6h4.735A2.512,2.512,0,0,0,45.535,5.972ZM1.7,12.446H0L5.6,0l5.654,12.444H9.544L8.142,9.38H3.062L1.7,12.445ZM5.6,3.754,3.674,8.014h3.85ZM39.48,12.445H37.864V4.684H39.48v7.76Zm-4.039,0H33.806V.234h1.635v12.21Zm3.231-9.058a1.235,1.235,0,0,1-.895-.369,1.223,1.223,0,0,1,0-1.763,1.234,1.234,0,0,1,.895-.373,1.216,1.216,0,0,1,.878.373,1.208,1.208,0,0,1,.368.879,1.258,1.258,0,0,1-1.247,1.253Z" transform="translate(67)" fill="none" stroke="#fff" stroke-miterlimit="10" stroke-width="0.216"/>
  </g>
</svg>
