<svg id="Layer_1" data-name="Layer 1" xmlns="http://www.w3.org/2000/svg" viewBox="0 0 562 74.09"><title>logo</title><path d="M437.46,472.45c-7.08,0-12.84,2.32-17.11,6.89a23.5,23.5,0,0,0-6.43,16.59,27.57,27.57,0,0,0,1.51,8.85,21.92,21.92,0,0,0,5.36,8.36,22.29,22.29,0,0,0,7.44,4.93,9.23,9.23,0,0,0-3.28,2.28l-.37.4,2.65,3.81.58-.53a5.81,5.81,0,0,1,4.11-1.4c1.73,0,4.17.75,7.26,2.24,3.85,1.87,6.8,2.77,9,2.77a11.69,11.69,0,0,0,1.87-.17l.37-.06,3-7-1.27.26a12.06,12.06,0,0,1-2.21.27,20.56,20.56,0,0,1-6.8-1.7,21.38,21.38,0,0,0,8.92-4.08,22.35,22.35,0,0,0,7.13-8.81A26.24,26.24,0,0,0,461.33,496a23.18,23.18,0,0,0-6.6-16.88C450.34,474.7,444.54,472.45,437.46,472.45Zm10.89,35.21a13.84,13.84,0,0,1-10.86,4.85,13.6,13.6,0,0,1-10.75-4.73,17.54,17.54,0,0,1-4.12-11.85,16.79,16.79,0,0,1,4.14-11.58,13.69,13.69,0,0,1,10.64-4.61,14.24,14.24,0,0,1,10.88,4.69A16.48,16.48,0,0,1,452.63,496,17.17,17.17,0,0,1,448.35,507.66Z" transform="translate(-219 -462.95)" style="fill:#ffffff"/><path d="M498.8,486.7H485.88v6.77h5.47v15.78c-3,2.44-5.77,3.67-8.34,3.67a2.88,2.88,0,0,1-1.91-.61,2.43,2.43,0,0,1-.88-1.54,35.41,35.41,0,0,1-.18-4.5V486.7H468.2v6.77h4.39V507a26.26,26.26,0,0,0,.7,7.17,7.19,7.19,0,0,0,3,3.88,9.74,9.74,0,0,0,5.52,1.48,17,17,0,0,0,9.56-3.41v2.9h12.8v-6.78H498.8Z" transform="translate(-219 -462.95)" style="fill:#ffffff"/><path d="M517.15,481.21a4.23,4.23,0,0,0,3.07-1.27,4.32,4.32,0,0,0,0-6.18,4.27,4.27,0,0,0-3.07-1.25,4.17,4.17,0,0,0-3.13,1.3,4.27,4.27,0,0,0-1.23,3,4.22,4.22,0,0,0,1.27,3.07A4.17,4.17,0,0,0,517.15,481.21Z" transform="translate(-219 -462.95)" style="fill:#ffffff"/><polygon points="302.1 23.74 289.85 23.74 289.85 30.52 294.65 30.52 294.65 49.33 289.85 49.33 289.85 56.1 306.9 56.1 306.9 49.33 302.1 49.33 302.1 23.74" style="fill:#ffffff"/><path d="M556.86,507.36c-1.81,3.83-4.65,5.69-8.67,5.69A7.45,7.45,0,0,1,541.7,510a12.16,12.16,0,0,1-2.3-7.33,10.44,10.44,0,0,1,2.39-7.15,7.75,7.75,0,0,1,6.15-2.67,8,8,0,0,1,5,1.65,6.65,6.65,0,0,1,2.48,4.7l.07.6h6.73V486.7h-6.8v1.47a14,14,0,0,0-8-2.34,15.39,15.39,0,0,0-11.11,4.76,16.31,16.31,0,0,0-4.82,12.06,18.21,18.21,0,0,0,4.39,12c2.94,3.5,7,5.27,12.12,5.27,7.19,0,12.31-3.24,15.19-9.65l.27-.61-6.25-2.95Z" transform="translate(-219 -462.95)" style="fill:#ffffff"/><polygon points="367.26 30.14 371.15 30.14 362.19 37.29 362.19 10.2 349.17 10.2 349.17 16.98 354.74 16.98 354.74 49.33 349.17 49.33 349.17 56.1 367.54 56.1 367.54 49.33 362.19 49.33 362.19 41.48 376.82 56.1 385.76 56.1 385.76 49.33 379.92 49.33 369.73 39.17 380.58 30.14 385.76 30.14 385.76 23.74 367.26 23.74 367.26 30.14" style="fill:#ffffff"/><path d="M635.53,497c5.9-1.71,8.88-5.6,8.88-11.55a12,12,0,0,0-2.32-7.48,10.68,10.68,0,0,0-5.87-3.95,37.33,37.33,0,0,0-9.17-.91H608.27v6.94h6.12v32h-6.12v6.94h19.91v-6.94h-5.7V498.25h5.17l10.14,20.81h10.75v-6.94h-5.69Zm-3-6.2a22.81,22.81,0,0,1-5.44.47h-4.57V480.09h5a24.9,24.9,0,0,1,5.08.38,4.37,4.37,0,0,1,2.49,1.66,5.13,5.13,0,0,1,1,3.27,6,6,0,0,1-1,3.67A4.87,4.87,0,0,1,632.49,490.84Z" transform="translate(-219 -462.95)" style="fill:#ffffff"/><path d="M680.45,498.62A25.6,25.6,0,0,0,680,493a8.81,8.81,0,0,0-1.82-3.49,9.61,9.61,0,0,0-4.08-2.64,18.27,18.27,0,0,0-6.28-1c-6.58,0-11.28,2.56-14,7.6l-.41.76,7.17,1.89.26-.46a6.34,6.34,0,0,1,6-3.3,7.45,7.45,0,0,1,4,.92,4.06,4.06,0,0,1,1.81,1.95,10.77,10.77,0,0,1,.41,3.43v1.86a15.75,15.75,0,0,0-7.74-2.1,12.56,12.56,0,0,0-8.43,3,10.15,10.15,0,0,0-.2,15.25,11.47,11.47,0,0,0,7.8,2.92,14.17,14.17,0,0,0,9.18-3.44v2.93h12v-6.78h-5.22Zm-7.39,11.55a11.32,11.32,0,0,1-7.67,3.33,4.8,4.8,0,0,1-3.57-1.28,4.21,4.21,0,0,1-1.29-3.16,4.14,4.14,0,0,1,1.46-3.3,5.52,5.52,0,0,1,3.78-1.3,12.1,12.1,0,0,1,7.29,2.73Z" transform="translate(-219 -462.95)" style="fill:#ffffff"/><path d="M698.86,481.21a4.23,4.23,0,0,0,3.07-1.27,4.32,4.32,0,0,0,0-6.18,4.27,4.27,0,0,0-3.07-1.25,4.17,4.17,0,0,0-3.13,1.3,4.37,4.37,0,0,0,0,6.11A4.21,4.21,0,0,0,698.86,481.21Z" transform="translate(-219 -462.95)" style="fill:#ffffff"/><polygon points="483.81 23.74 471.56 23.74 471.56 30.52 476.36 30.52 476.36 49.33 471.56 49.33 471.56 56.1 488.61 56.1 488.61 49.33 483.81 49.33 483.81 23.74" style="fill:#ffffff"/><path d="M734.58,500.59a32.59,32.59,0,0,0-7-1.69,28.55,28.55,0,0,1-6-1.33,1.77,1.77,0,0,1-1-1.8,2.52,2.52,0,0,1,1.25-2.2,6.25,6.25,0,0,1,3.57-.93,7.29,7.29,0,0,1,6.49,3.34v2.36h6.78V486.7h-6.78v.89a16.42,16.42,0,0,0-6.87-1.37,12.16,12.16,0,0,0-8.3,2.78,9,9,0,0,0-3.21,7,8.69,8.69,0,0,0,3,6.78c1.91,1.69,5.1,2.92,9.48,3.66a19.33,19.33,0,0,1,5.55,1.45,2.1,2.1,0,0,1,1.12,2,2.48,2.48,0,0,1-1.42,2.26,8.76,8.76,0,0,1-4.37.93,7.81,7.81,0,0,1-4.5-1.29,4.34,4.34,0,0,1-2-3v-1.71h-6.81v12h6.81v-1.19a15.07,15.07,0,0,0,7.42,1.7,14.39,14.39,0,0,0,9-2.69,8.88,8.88,0,0,0,3.58-7.41,9.49,9.49,0,0,0-1.64-5.5A9.36,9.36,0,0,0,734.58,500.59Z" transform="translate(-219 -462.95)" style="fill:#ffffff"/><path d="M774.38,508.05l-.32.45a11.08,11.08,0,0,1-9.53,4.84,9.47,9.47,0,0,1-6.74-2.47,10.47,10.47,0,0,1-3.06-5.77h26l0-.7c-.13-6.1-2-10.78-5.49-13.9a17.39,17.39,0,0,0-11.77-4.67,16.77,16.77,0,0,0-11.76,4.8,16.13,16.13,0,0,0-5.13,12.25c0,5.2,1.77,9.39,5.28,12.47a18.47,18.47,0,0,0,12.6,4.6,21.14,21.14,0,0,0,9.06-2,17.05,17.05,0,0,0,7.11-6.28L781,511Zm-16.6-13.71a8.17,8.17,0,0,1,5.79-2.21,8.66,8.66,0,0,1,6.28,2.45,10.87,10.87,0,0,1,3,4.73H755A9.36,9.36,0,0,1,757.78,494.34Z" transform="translate(-219 -462.95)" style="fill:#ffffff"/><path d="M378.64,473.8a37.06,37.06,0,0,0-44.72-5.89,37.07,37.07,0,0,1,0,64.18,37,37,0,0,0,44.7-58.29Z" transform="translate(-219 -462.95)" style="fill:#d8dc63"/><path d="M341.6,473.81a37.09,37.09,0,0,0-7.68-5.9c-.53.31-1.06.64-1.57,1s-1.07.72-1.6,1.1a38.21,38.21,0,0,0-4.49,3.81,37.06,37.06,0,0,0,0,52.39c.42.43.87.83,1.32,1.22a35.11,35.11,0,0,0,4.18,3.29c.71.49,1.44,1,2.18,1.39a37.07,37.07,0,0,0,7.66-58.28Z" transform="translate(-219 -462.95)" style="fill:#1e353d"/><path d="M259.9,532.45h-1.57a2.3,2.3,0,1,0,0,4.59h1.57a2.3,2.3,0,0,0,0-4.59Z" transform="translate(-219 -462.95)" style="fill:#33b179"/><path d="M333.94,532.09A37,37,0,0,1,316,537H265.82a2.3,2.3,0,0,1-.23-4.58h37.18a1.38,1.38,0,1,0,0-2.76h-9.51a37,37,0,0,1-8.5-8.88H239.81a2.29,2.29,0,1,1,0-4.58h55.61a1.38,1.38,0,0,0,0-2.76H280.9a36.64,36.64,0,0,1-2.46-11.17H258.49a2.3,2.3,0,0,1,0-4.59h29.07a1.38,1.38,0,0,0,0-2.76h-8.84a36.54,36.54,0,0,1,3.4-11.17H245.8a2.3,2.3,0,0,1,0-4.59h49.62a1.38,1.38,0,0,0,0-2.75h-8.59a34.45,34.45,0,0,1,2.38-2.63,36.67,36.67,0,0,1,8.32-6.24H275.85a2.3,2.3,0,1,1,0-4.59H316a37,37,0,0,1,17.91,4.93c-.53.31-1.06.64-1.58,1s-1.06.72-1.59,1.11a36.92,36.92,0,0,0-4.49,56.19c.42.43.87.83,1.32,1.22a35.11,35.11,0,0,0,4.18,3.29C332.47,531.19,333.2,531.66,333.94,532.09Z" transform="translate(-219 -462.95)" style="fill:#33b179"/><path d="M271.55,465.27a2.29,2.29,0,0,1-2.3,2.3h-11a2.3,2.3,0,1,1,0-4.59h11A2.3,2.3,0,0,1,271.55,465.27Z" transform="translate(-219 -462.95)" style="fill:#33b179"/><path d="M254.89,500a2.29,2.29,0,0,1-2.29,2.3H227a2.3,2.3,0,0,1,0-4.59h25.6A2.29,2.29,0,0,1,254.89,500Z" transform="translate(-219 -462.95)" style="fill:#33b179"/><path d="M219.67,498.38h0a2.29,2.29,0,1,0,3.25,0A2.3,2.3,0,0,0,219.67,498.38Z" transform="translate(-219 -462.95)" style="fill:#33b179"/><path d="M241.44,483.1a2.29,2.29,0,0,0-3.24-3.24h0a2.29,2.29,0,0,0,3.25,3.24Z" transform="translate(-219 -462.95)" style="fill:#33b179"/></svg>