<svg xmlns="http://www.w3.org/2000/svg" width="25.181" height="27.852" viewBox="0 0 25.181 27.852">
  <g id="box-3" transform="translate(1.019 1.035)">
    <path id="Path" d="M23.143,18V7.712a2.571,2.571,0,0,0-1.286-2.224l-9-5.143a2.571,2.571,0,0,0-2.571,0l-9,5.143A2.571,2.571,0,0,0,0,7.712V18a2.571,2.571,0,0,0,1.286,2.224l9,5.143a2.571,2.571,0,0,0,2.571,0l9-5.143A2.571,2.571,0,0,0,23.143,18Z" transform="translate(0 0.003)" fill="none" stroke="#fff" stroke-linecap="round" stroke-linejoin="round" stroke-miterlimit="10" stroke-width="2"/>
    <path id="Path-2" data-name="Path" d="M0,0,11.224,6.493,22.449,0" transform="translate(0.347 6.377)" fill="none" stroke="#fff" stroke-linecap="round" stroke-linejoin="round" stroke-miterlimit="10" stroke-width="2"/>
    <path id="Path-3" data-name="Path" stroke="#fff" d="M.643,12.96V0" fill="none" transform="translate(10.929 12.857)" stroke-linecap="round" stroke-linejoin="round" stroke-miterlimit="10" stroke-width="2" opacity="0.4"/>
  </g>
</svg>
