<svg xmlns="http://www.w3.org/2000/svg" width="25.143" height="27.784" viewBox="0 0 25.143 27.784">
  <g id="box-3" transform="translate(1 1.035)">
    <path id="Path" d="M23.143,18V7.712a2.571,2.571,0,0,0-1.286-2.224l-9-5.143a2.571,2.571,0,0,0-2.571,0l-9,5.143A2.571,2.571,0,0,0,0,7.712V18a2.571,2.571,0,0,0,1.286,2.224l9,5.143a2.571,2.571,0,0,0,2.571,0l9-5.143A2.571,2.571,0,0,0,23.143,18Z" transform="translate(0 0.003)" fill="none" stroke="#fff" stroke-linecap="round" stroke-linejoin="round" stroke-miterlimit="10" stroke-width="2"/>
  </g>
</svg>
