<svg xmlns="http://www.w3.org/2000/svg" width="39.25" height="35" viewBox="0 0 39.25 35">
  <g id="law" transform="translate(0.5 0.5)">
    <path id="Shape" d="M10.123,34A1.115,1.115,0,0,1,9,32.893a5.594,5.594,0,0,1,5.622-5.552h1.129V8.882H8.078l4.333,8.56a1.085,1.085,0,0,1,.12.494,6.234,6.234,0,0,1-6.265,6.188A6.234,6.234,0,0,1,0,17.936a1.1,1.1,0,0,1,.118-.495L5.262,7.28a1.122,1.122,0,0,1,1-.612h9.489V3.329a3.372,3.372,0,0,1,6.743,0V6.668h9.489a1.122,1.122,0,0,1,1,.612l5.144,10.162a1.085,1.085,0,0,1,.119.494,6.265,6.265,0,0,1-12.53,0,1.1,1.1,0,0,1,.119-.495l4.333-8.559H22.5V27.341h1.129a5.593,5.593,0,0,1,5.622,5.552A1.114,1.114,0,0,1,28.128,34Z" fill="#fff" stroke="#30b179" stroke-miterlimit="10" stroke-width="1"/>
  </g>
</svg>
