<svg xmlns="http://www.w3.org/2000/svg" width="38.611" height="25.762" viewBox="0 0 38.611 25.762">
  <g id="users" transform="translate(1.25 1.512)">
    <path id="Path" d="M20.444,7.667V5.111A5.111,5.111,0,0,0,15.333,0H5.111A5.111,5.111,0,0,0,0,5.111V7.667" transform="translate(8 15.333)" fill="none" stroke="#fff" stroke-linecap="round" stroke-linejoin="round" stroke-miterlimit="10" stroke-width="2.5"/>
    <circle id="Oval" cx="5.111" cy="5.111" r="5.111" stroke-width="2.5" transform="translate(13.111 0)" stroke="#fff" stroke-linecap="round" stroke-linejoin="round" stroke-miterlimit="10" fill="none"/>
    <path id="Path-2" data-name="Path" stroke="#fff" d="M3.833,7.5V4.945A5.111,5.111,0,0,0,0,0" fill="none" transform="translate(32.278 15.499)" stroke-linecap="round" stroke-linejoin="round" stroke-miterlimit="10" stroke-width="2.5" opacity="0.174"/>
    <path id="Path-3" data-name="Path" stroke="#fff" d="M0,0A5.111,5.111,0,0,1,3.843,4.951,5.111,5.111,0,0,1,0,9.9" fill="none" transform="translate(27.167 0.166)" stroke-linecap="round" stroke-linejoin="round" stroke-miterlimit="10" stroke-width="2.5" opacity="0.174"/>
    <path id="Path-4" data-name="Path" stroke="#fff" d="M-4,7.5V4.945A5.155,5.155,0,0,1,0,0" fill="none" transform="translate(4 15.333)" stroke-linecap="round" stroke-linejoin="round" stroke-miterlimit="10" stroke-width="2.5" opacity="0.403"/>
    <path id="Path-5" data-name="Path" stroke="#fff" d="M0,0A5.152,5.152,0,0,0-4,4.951,5.152,5.152,0,0,0,0,9.9" fill="none" transform="translate(9 0)" stroke-linecap="round" stroke-linejoin="round" stroke-miterlimit="10" stroke-width="2.5" opacity="0.403"/>
  </g>
</svg>
