<svg xmlns="http://www.w3.org/2000/svg" width="25.868" height="25.916" viewBox="0 0 25.868 25.916">
  <g id="phone" transform="translate(0.867 1)">
    <path id="Path" d="M23.866,17.9v3.6a2.4,2.4,0,0,1-2.616,2.4A23.748,23.748,0,0,1,10.894,20.22a23.4,23.4,0,0,1-7.2-7.2A23.748,23.748,0,0,1,.01,2.616,2.4,2.4,0,0,1,2.4,0H6A2.4,2.4,0,0,1,8.4,2.064a15.408,15.408,0,0,0,.84,3.372A2.4,2.4,0,0,1,8.7,7.968L7.174,9.492a19.2,19.2,0,0,0,7.2,7.2L15.9,15.168a2.4,2.4,0,0,1,2.532-.54,15.408,15.408,0,0,0,3.372.84A2.4,2.4,0,0,1,23.866,17.9Z" transform="translate(0.134 0)" fill="none" stroke="#fff" stroke-linecap="round" stroke-linejoin="round" stroke-miterlimit="10" stroke-width="2"/>
  </g>
</svg>
