<svg id="amex" xmlns="http://www.w3.org/2000/svg" width="22.857" height="16" viewBox="0 0 22.857 16">
  <rect id="amex-bg" width="22.857" height="16" rx="1.895" fill="#007ecd"/>
  <path id="amex-logo" d="M10.708,5.121h-.564V2.969h1.369a.652.652,0,0,1,.068,0,.588.588,0,0,1,.646.633.554.554,0,0,1-.315.5.536.536,0,0,1,.27.487v.531h-.548V4.7a.361.361,0,0,0-.377-.328h-.548V5.12Zm0-1.661v.408h.583c.17,0,.308-.092.308-.2s-.138-.2-.308-.2ZM6.183,5.117h-2.1V2.962H6.138l.646.684.651-.68h.432l1.368,0s.024,0,.06,0a.6.6,0,0,1,.655.635c0,.629-.235.831-.967.831H8.43v.69H7.382l-.6-.637-.6.637ZM7.867,3.311l-.7.747.7.749Zm-3.214.976V4.65H5.841L6.4,4.058l-.556-.59H4.653V3.8H5.811v.488Zm3.777-.83v.407h.583c.17,0,.308-.091.308-.2s-.138-.2-.308-.2H8.43Zm5.788,1.66H12.46V2.969h1.758v.5H13.028V3.8h1.162v.488H13.028v.365h1.191v.464Zm3.317,0c-.042,0-.068,0-.068,0h-1v-.5h.876a.526.526,0,0,0,.055,0c.1,0,.265-.022.265-.173,0-.166-.347-.179-.453-.179h-.024s-.019,0-.051,0a.938.938,0,0,1-.429-.1.57.57,0,0,1-.3-.545.636.636,0,0,1,.683-.663h1.1v.5h-.868a.514.514,0,0,0-.087-.007c-.1,0-.213.028-.213.16s.249.153.356.153h.054l.058,0c.188,0,.8.042.8.588A.7.7,0,0,1,17.535,5.116Zm-1.988,0c-.042,0-.068,0-.068,0h-1v-.5h.879a.52.52,0,0,0,.054,0c.1,0,.262-.022.262-.173,0-.166-.347-.179-.454-.179h-.024s-.019,0-.051,0a.936.936,0,0,1-.428-.1.57.57,0,0,1-.3-.545.636.636,0,0,1,.683-.663h1.1v.5h-.872a.514.514,0,0,0-.087-.007c-.1,0-.213.028-.213.16s.248.153.355.153h.053l.058,0c.188,0,.8.042.8.588A.7.7,0,0,1,15.547,5.116Zm-4.7-2.939h-.567V.019h.567V2.175Zm4.365-.006H14.11l-.2-.451h-1.03l-.2.451H11.8a.95.95,0,0,1-.759-1.015c0-1.007.611-1.142.874-1.153h.016l.7.018V.5l-.571.007a.454.454,0,0,0-.418.47,1.247,1.247,0,0,0-.007.149c0,.44.239.533.438.533a.763.763,0,0,0,.234-.038l.7-1.6h.789l.845,1.95V.018h.8l.883,1.416V.018h.568v2.15h-.778L15.215.732V2.169ZM13.4.527l-.278.641h.548ZM8.532,2.17H7.969V.018H9.337a.652.652,0,0,1,.067,0,.588.588,0,0,1,.646.633.554.554,0,0,1-.316.5.535.535,0,0,1,.274.487v.531H9.456V1.751a.359.359,0,0,0-.375-.328H8.532v.746Zm0-1.661V.917h.582c.17,0,.309-.092.309-.2s-.138-.2-.309-.2ZM3.154,2.17H2.041l-.2-.451H.815l-.2.451H0L.936.018h.793l.857,1.976V.018h.891L4.1,1.354,4.713.018H5.6v2.15H5.033V.684L4.326,2.169H3.864L3.154.691V2.169ZM1.33.527l-.274.641H1.6ZM7.675,2.169H5.916V.018h1.76v.5H6.484V.851H7.645v.488H6.484V1.7H7.675v.464Z" transform="translate(2.612 5.76)" fill="#fff"/>
</svg>
