<svg id="discover" xmlns="http://www.w3.org/2000/svg" width="22.857" height="16" viewBox="0 0 22.857 16">
  <rect id="discover-bg" width="22.857" height="16" rx="1.919" fill="#ffa200"/>
  <path id="discover-logo" d="M13,3.1h-.311L11.406.068h.622l.795,2,.83-2h.622L13,3.1Zm-5.633,0A1.547,1.547,0,0,1,5.806,1.57,1.474,1.474,0,0,1,7.279.064c.039,0,.079,0,.118,0a1.342,1.342,0,0,1,.725.167V.9A.985.985,0,0,0,7.4.569a1.065,1.065,0,0,0-.729.357.93.93,0,0,0-.239.677V1.67a.959.959,0,0,0,1,.933.911.911,0,0,0,.691-.333v.667A1.917,1.917,0,0,1,7.362,3.1Zm2.584,0H9.885a1.6,1.6,0,0,1-1.59-1.568A1.565,1.565,0,0,1,9.885,0a1.625,1.625,0,0,1,1.624,1.568A1.578,1.578,0,0,1,9.946,3.1ZM4.661,3.073l-.064,0A1.177,1.177,0,0,1,3.559,2.5l.381-.366a.687.687,0,0,0,.622.4H4.6A.441.441,0,0,0,5.011,2.1a.347.347,0,0,0-.173-.3,2.134,2.134,0,0,0-.415-.167c-.529-.16-.725-.377-.725-.8V.8A.874.874,0,0,1,4.57,0l.061,0A1.4,1.4,0,0,1,5.5.336l-.311.4A.727.727,0,0,0,4.7.5a.335.335,0,0,0-.053,0,.389.389,0,0,0-.362.338c0,.166.107.234.449.367.661.255.862.449.9.867v.1A.96.96,0,0,1,4.661,3.073ZM.98,3.043c-.039,0-.078,0-.116-.005H0V.068H1.037A1.559,1.559,0,0,1,2.115.562,1.394,1.394,0,0,1,2.488,1.57,1.5,1.5,0,0,1,1.935,2.7,1.614,1.614,0,0,1,.98,3.043ZM.588.569V2.537H.761a.909.909,0,0,0,.109.006A1.145,1.145,0,0,0,1.555,2.3a1.041,1.041,0,0,0,.311-.768A1.011,1.011,0,0,0,1.555.8,1.146,1.146,0,0,0,.868.562.9.9,0,0,0,.76.569Zm16.59,2.47H16.59V.068h.864c.7,0,1.071.3,1.071.868a.811.811,0,0,1-.691.868l.932,1.232-.724,0-.8-1.2h-.068v1.2Zm0-2.5h0v.9h.173c.367,0,.553-.157.553-.467,0-.284-.191-.434-.553-.434h-.173Zm-.968,2.5H14.55V.068h1.659v.5H15.138v.668h1.037v.5H15.138v.8h1.071v.5Zm-12.891,0H2.731V.068h.588V3.036Z" transform="translate(2.165 6.448)" fill="#fff"/>
</svg>
