<svg id="visa" xmlns="http://www.w3.org/2000/svg" width="22.857" height="16" viewBox="0 0 22.857 16">
  <rect id="visa-bg" width="22.857" height="16" rx="1.895" fill="#224dba"/>
  <path id="visa-logo" d="M8.926,4.95H8.817A3.636,3.636,0,0,1,7.441,4.69l.223-1.034a3.2,3.2,0,0,0,1.3.3c.37,0,.743-.148.743-.48.036-.211-.117-.355-.632-.59S8,2.257,8,1.588C8,.668,8.89,0,10.12,0a3.192,3.192,0,0,1,1.154.222L11.05,1.255a2.343,2.343,0,0,0-1.021-.231c-.07,0-.139,0-.207.009a.492.492,0,0,0-.521.407c0,.221.284.368.613.539.506.263,1.136.589,1.136,1.344C11.05,4.311,10.216,4.95,8.926,4.95Zm3.389-.038h-1.3L12.873.48a.56.56,0,0,1,.521-.369h1.079l1,4.8H14.323l-.148-.7h-1.6l-.26.7ZM13.58,1.4l-.67,1.81h1.041ZM6.623,4.911H5.358L6.4.111H7.664l-1.041,4.8Zm-2.754,0H2.53l-1-3.84a.611.611,0,0,0-.3-.406A4.374,4.374,0,0,0,0,.258V.111H2.157a.565.565,0,0,1,.559.48l.521,2.77L4.576.111h1.3l-2.009,4.8Z" transform="translate(3.918 5.76)" fill="#fff"/>
</svg>
