<svg id="iStock-1044848414" xmlns="http://www.w3.org/2000/svg" xmlns:xlink="http://www.w3.org/1999/xlink" width="759" height="423" viewBox="0 0 759 423">
  <defs>
    <clipPath id="clip-path">
      <path id="Clip_162" data-name="Clip 162" d="M56.939,19.534c-.695,0-1.388-.007-2.083-.022-14.028-.289-34.868-3.63-54.487-17.9A.884.884,0,0,1,.177.363.916.916,0,0,1,1.446.175c31.839,23.161,75.6,21.3,99.515,6.127a.917.917,0,0,1,1.253.267.885.885,0,0,1-.271,1.234c-11.813,7.5-28.116,11.731-45,11.731" transform="translate(0.098 0.388)" fill="none"/>
    </clipPath>
    <linearGradient id="linear-gradient" y1="0.5" x2="1" y2="0.5" gradientUnits="objectBoundingBox">
      <stop offset="0" stop-color="#aa365d"/>
      <stop offset="1" stop-color="#732246"/>
    </linearGradient>
  </defs>
  <path id="Fill_1" data-name="Fill 1" d="M157,313a158.647,158.647,0,0,1-31.641-3.18,156.482,156.482,0,0,1,0-306.641,159.026,159.026,0,0,1,63.282,0,156.482,156.482,0,0,1,0,306.641A158.647,158.647,0,0,1,157,313Zm0-300.075a145.545,145.545,0,0,0-29.028,2.917,143.559,143.559,0,0,0,0,281.317,145.891,145.891,0,0,0,58.055,0,143.559,143.559,0,0,0,0-281.317A145.545,145.545,0,0,0,157,12.925Z" transform="translate(214 86)" fill="#30b179"/>
  <path id="Fill_2" data-name="Fill 2" d="M144,11.369c77.629,0,140.9,61.564,143.878,138.631.073-1.886.122-3.78.122-5.684C288,64.613,223.529,0,144,0S0,64.613,0,144.316c0,1.9.048,3.8.122,5.684C3.1,72.933,66.371,11.369,144,11.369" transform="translate(226 98)" fill="#e4e8eb" opacity="0.4"/>
  <path id="Fill_3" data-name="Fill 3" d="M0,19H8V0H0Z" transform="translate(366 106)" fill="#30b179" opacity="0.3"/>
  <path id="Fill_4" data-name="Fill 4" d="M0,19H8V0H0Z" transform="translate(366 360)" fill="#30b179" opacity="0.3"/>
  <path id="Fill_5" data-name="Fill 5" d="M0,8H19V0H0Z" transform="translate(488 238)" fill="#30b179" opacity="0.3"/>
  <path id="Fill_6" data-name="Fill 6" d="M0,8H19V0H0Z" transform="translate(234 238)" fill="#30b179" opacity="0.3"/>
  <path id="Fill_7" data-name="Fill 7" d="M0,11H26V0H0Z" transform="translate(359 78)" fill="#30b179"/>
  <path id="Fill_8" data-name="Fill 8" d="M0,17H38V0H0Z" transform="translate(352 56)" fill="#30b179"/>
  <path id="Fill_9" data-name="Fill 9" d="M13,0,0,10l4,5L17,5,13,0" transform="translate(266 108)" fill="#30b179"/>
  <path id="Fill_10" data-name="Fill 10" d="M17.882,0,0,14.137,6.117,22,24,7.863,17.882,0" transform="translate(256 96)" fill="#30b179"/>
  <path id="Fill_11" data-name="Fill 11" d="M139.783,80A162.977,162.977,0,0,1,58.656,58.387,165.7,165.7,0,0,1,.136,1.4.921.921,0,0,1,.432.137a.9.9,0,0,1,1.251.3c29.806,48.672,81.431,77.731,138.1,77.731A160.647,160.647,0,0,0,227.6,52.149a.908.908,0,0,1,1.258.274.922.922,0,0,1-.271,1.268A162.459,162.459,0,0,1,139.783,80" transform="translate(231 327)" fill="#30b179"/>
  <path id="Fill_12" data-name="Fill 12" d="M39.087,2H.913A.96.96,0,0,1,0,1,.96.96,0,0,1,.913,0H39.087A.959.959,0,0,1,40,1a.959.959,0,0,1-.913,1" transform="translate(351 52)" fill="#30b179"/>
  <path id="Fill_13" data-name="Fill 13" d="M.913,16a.908.908,0,0,1-.564-1.623L18.524.193a.917.917,0,0,1,1.282.154.906.906,0,0,1-.155,1.276L1.476,15.806A.911.911,0,0,1,.913,16" transform="translate(253 92)" fill="#30b179"/>
  <path id="Fill_14" data-name="Fill 14" d="M75.176,112a.9.9,0,0,1-.209-.024A98.263,98.263,0,0,1,17.238,73.343,93.342,93.342,0,0,1,1.508,2.3l.1-.549.535-.164c14.965-4.608,34.021.9,55.106,15.908a189.131,189.131,0,0,1,27.521,24.2.909.909,0,0,1-.071,1.288.92.92,0,0,1-1.292-.069c-.451-.5-45.327-49.827-80.188-39.743C-6.1,57.448,32.509,100.18,75.385,110.2a.912.912,0,0,1-.209,1.8" transform="translate(20 311)" fill="#b2bbc6"/>
  <path id="Fill_15" data-name="Fill 15" d="M7.361,162c-1.217-4.04-2.4-8.466-3.452-13.2-4.142-18.633-6.2-42.022.047-65.347,5.493-20.5,16.581-37.882,27.957-51.385,3.357-4.152,8.673-9.466,11.842-12.739A166.17,166.17,0,0,1,67.131,0S82.268,29.216,84,65.611c-3.946,3.123-25.235,19.058-25.235,19.058s14.4.816,24.687,1.309q-.134,1.269-.3,2.538A112.44,112.44,0,0,1,80.2,103.589C73.7,127.851,59.372,147.734,46,162H7.361" transform="translate(172 260)" fill="#b2bbc6"/>
  <path id="Fill_16" data-name="Fill 16" d="M.916,161a1.032,1.032,0,0,1-.133-.009.91.91,0,0,1-.774-1.029c2.818-19.22,7.726-47.9,15.1-75.394C26.662,41.486,46.064.923,46.258.517a.918.918,0,0,1,1.22-.429.9.9,0,0,1,.432,1.21c-.194.4-19.523,40.821-31.033,83.736C9.528,112.442,4.633,141.05,1.822,160.223A.914.914,0,0,1,.916,161" transform="translate(191 262)" fill="#edecf2"/>
  <path id="Fill_17" data-name="Fill 17" d="M13.037,20a.984.984,0,0,1-.824-.425L.141,1.344A.844.844,0,0,1,.463.128a1.016,1.016,0,0,1,1.324.3L13.86,18.655a.845.845,0,0,1-.323,1.216,1.025,1.025,0,0,1-.5.129" transform="translate(208 284)" fill="#edecf2"/>
  <path id="Fill_18" data-name="Fill 18" d="M.917,11a.9.9,0,0,1-.711-.359A1.026,1.026,0,0,1,.337,9.263C9.592,1.2,25.359.046,26.026,0A.934.934,0,0,1,27,.916a.958.958,0,0,1-.857,1.038c-.158.011-15.851,1.159-24.645,8.825A.876.876,0,0,1,.917,11" transform="translate(204 343)" fill="#edecf2"/>
  <path id="Fill_19" data-name="Fill 19" d="M.729,15a.715.715,0,0,1-.6-.336.8.8,0,0,1,.189-1.075C11.39,5.519,33.189.239,34.112.019a.73.73,0,0,1,.87.585.775.775,0,0,1-.551.924c-.224.054-22.45,5.436-33.291,13.337A.693.693,0,0,1,.729,15" transform="translate(218 296)" fill="#edecf2"/>
  <path id="Fill_20" data-name="Fill 20" d="M26.093,17a.894.894,0,0,1-.613-.244C12.054,4.139.851,1.861.74,1.839A.927.927,0,0,1,.016.756.909.909,0,0,1,1.073.016c.475.091,11.791,2.365,25.634,15.373a.943.943,0,0,1,.054,1.311.9.9,0,0,1-.668.3" transform="translate(171 375)" fill="#edecf2"/>
  <path id="Fill_21" data-name="Fill 21" d="M.926,12a.924.924,0,0,1-.846-.578.994.994,0,0,1,.47-1.284C1.664,9.617,28.01-2.563,44.237.491a.97.97,0,0,1,.748,1.129.931.931,0,0,1-1.074.787C28.248-.539,1.568,11.791,1.3,11.916A.872.872,0,0,1,.926,12" transform="translate(193 395)" fill="#edecf2"/>
  <path id="Fill_22" data-name="Fill 22" d="M113.7,325C81.346,301.9,32.353,258.671,11.4,197.551a202.828,202.828,0,0,1-7.536-28.869C-1.388,140.4-.728,112.44,2.52,87.663c6.389-1.368,23.241-5.55,23.241-5.55S12.773,62.619,8.47,55.146C16.211,22.031,26.462,0,26.462,0S83,29.129,125.036,83.831c-3.192,9.1-10.345,32.1-10.345,32.1s16.179-11.082,22.226-15.265a213.3,213.3,0,0,1,22.677,46.254c8.155,23.808,11.289,48.064,11.4,71.065.211,44.6-10.936,84.451-18.827,107.02H113.7" transform="translate(19 97)" fill="#e4e8eb"/>
  <path id="Fill_23" data-name="Fill 23" d="M109.088,329a.915.915,0,0,1-.815-.5c-15.921-31.257-45.867-93.14-67.555-156.408C13.512,92.733.141,1.949.01,1.042A.913.913,0,0,1,1.817.781C1.948,1.687,15.3,92.307,42.445,171.5,64.1,234.665,94,296.461,109.9,327.676a.911.911,0,0,1-.4,1.226.92.92,0,0,1-.413.1" transform="translate(46 94)" fill="#fff"/>
  <path id="Fill_24" data-name="Fill 24" d="M23.087,10a.882.882,0,0,1-.3-.054L.613,1.859A.968.968,0,0,1,.051.642.9.9,0,0,1,1.213.053L23.387,8.141a.967.967,0,0,1,.562,1.216.918.918,0,0,1-.862.642" transform="translate(41 177)" fill="#fff"/>
  <path id="Fill_25" data-name="Fill 25" d="M.907,61a.9.9,0,0,1-.477-.137.914.914,0,0,1-.294-1.255C19.361,28.438,54.178.477,54.527.2A.9.9,0,0,1,55.8.345a.916.916,0,0,1-.147,1.282C55.31,1.9,20.736,29.673,1.681,60.568A.908.908,0,0,1,.907,61" transform="translate(86 205)" fill="#fff"/>
  <path id="Fill_26" data-name="Fill 26" d="M77.084,20a.925.925,0,0,1-.533-.167C63.141,10.473,24.2,2.3.894,1.778A.9.9,0,0,1,0,.869.919.919,0,0,1,.936,0C24.991.541,63.727,8.692,77.619,18.389a.872.872,0,0,1,.209,1.241.922.922,0,0,1-.744.37" transform="translate(40 322)" fill="#fff"/>
  <path id="Fill_27" data-name="Fill 27" d="M77.084,20a.925.925,0,0,1-.533-.167C63.141,10.473,24.2,2.3.894,1.779A.9.9,0,0,1,0,.869.906.906,0,0,1,.936,0C24.991.542,63.728,8.692,77.619,18.389a.872.872,0,0,1,.209,1.241.922.922,0,0,1-.744.37" transform="translate(48 342)" fill="#fff"/>
  <path id="Fill_28" data-name="Fill 28" d="M46.082,16a.927.927,0,0,1-.276-.042L.643,1.789A.916.916,0,1,1,1.194.042L46.357,14.212A.915.915,0,0,1,46.082,16" transform="translate(21 184)" fill="#fff"/>
  <path id="Fill_29" data-name="Fill 29" d="M.914,66a.913.913,0,0,1-.759-1.42C7.249,54.024,39.162,12.14,65.706.082a.913.913,0,1,1,.758,1.661C40.313,13.623,8.707,55.13,1.675,65.6a.916.916,0,0,1-.761.4" transform="translate(79 180)" fill="#fff"/>
  <path id="Fill_30" data-name="Fill 30" d="M57.091,17a.9.9,0,0,1-.236-.031L.674,1.8A.915.915,0,0,1,1.145.031L57.326,15.2a.916.916,0,0,1-.235,1.8" transform="translate(17 206)" fill="#fff"/>
  <path id="Fill_31" data-name="Fill 31" d="M65.555,20.48C56.449,1.858,27.6-6.362,25.008,5.613c-2.935,13.535,14.156,21.707,8.94,27.133S.793,49.213.048,69.048,7.057,107.34,30.215,126H86L65.555,20.48" transform="translate(470 296)" fill="#b2bbc6"/>
  <path id="Fill_32" data-name="Fill 32" d="M21.161,313c-9.66-22.781-34.1-97.836-12.5-108.211,13.637-6.55,25,5.695,32.957-7.4S21.215,88.868,48.435,80.631c15.057-4.556,29.263,17.94,42.048,3.417,15.565-17.68,3.693-67.2,31.252-69.483,19.894-1.645,20.74,17.94,36.935,16.517,10.752-.946,53.918-51.54,76.141-21.643,31.536,42.43-67.9,56.384-63.922,84.575,1.431,10.166,21.024,7.688,22.441,20.788,2.492,22.994-47.7,28.776-44.32,41.579,5.113,19.361,30.212,12.22,28.127,31.036-3.981,35.88-81.28,18.887-74.153,51.542,3.977,18.225,25.569,12.529,31.252,33.6S118.906,313,118.906,313H21.161" transform="translate(518 109)" fill="#e4e8eb"/>
  <path id="Fill_33" data-name="Fill 33" d="M1.75,304c-1.948-24.237-6.511-81,15.7-140.54C42.736,95.652,95.8,40.656,175.171,0L176,1.618C6.636,88.374-3.527,215.659,3.562,303.854L1.75,304" transform="translate(578 118)" fill="#fff"/>
  <path id="Fill_34" data-name="Fill 34" d="M54.61,49C22.808,41.829,5.826,12.914,0,.815L1.623,0C7.333,11.859,23.963,40.2,55,47.2L54.61,49" transform="translate(524 315)" fill="#fff"/>
  <path id="Fill_35" data-name="Fill 35" d="M44.39,65C16.335,55.342,4.536,20.378,0,.395L1.8,0C6.256,19.616,17.789,53.92,45,63.288L44.39,65" transform="translate(564 190)" fill="#fff"/>
  <path id="Fill_36" data-name="Fill 36" d="M11.525,70C-2.968,51.418-.065,13.069.889.468L.925,0,2.778.136,2.743.6C1.8,13.033-1.061,50.856,13,68.883L11.525,70" transform="translate(640 123)" fill="#fff"/>
  <path id="Fill_37" data-name="Fill 37" d="M34.96,11C22.235,11,8.5,8.931,0,1.544L1.193.125C20.877,17.239,73.824,5.789,85.178,0L86,1.67c-5.138,2.62-21.2,7.228-39.346,8.8C43,10.789,39.031,11,34.96,11" transform="translate(627 222)" fill="#fff"/>
  <path id="Fill_38" data-name="Fill 38" d="M47.065,16C30.918,16,14.091,12.28,0,1.566L1.083.05c18.591,14.133,41.7,15.076,57.81,13.38C77.569,11.463,94.535,5.267,103.065,0L104,1.616C94.747,7.33,71.7,16,47.065,16" transform="translate(592 290)" fill="#fff"/>
  <path id="Fill_39" data-name="Fill 39" d="M4.981,180a.91.91,0,0,1-.453-1.7c36.924-21.139,27.046-49.423,22.824-61.5-.489-1.408-.913-2.623-1.162-3.556C24.912,108.474,31.436,104.316,39,99.5c7.32-4.666,15.62-9.955,16.307-15.934.468-4.027-1.885-7.836-4.369-11.869-2.221-3.61-4.522-7.341-5.333-11.791-.877-4.806,3.492-10.9,8.555-17.958,5.545-7.732,11.836-16.5,12.866-25.6.826-7.335-1.753-12.62-6.9-14.137A10.249,10.249,0,0,0,48.174,7.74c-.709,1.42-1.578,3.678-2.579,6.293-3.412,8.864-8.073,21-14.524,22.612-2.126.533-4.245-.106-6.312-1.893C20.528,31.1,12.623,25.227,7.2,26.932c-2.55.8-4.369,3.275-5.4,7.355a.911.911,0,0,1-1.768-.444C1.226,29.107,3.447,26.2,6.64,25.2c5.969-1.874,13.8,3.414,19.317,8.182,1.607,1.394,3.142,1.883,4.668,1.5,5.531-1.379,10.184-13.486,13.26-21.5,1.023-2.659,1.907-4.956,2.652-6.454A12.079,12.079,0,0,1,60.638.463c4.69,1.38,9.3,6.331,8.2,16.088C67.753,26.129,61.317,35.1,55.64,43.007,50.826,49.728,46.661,55.533,47.4,59.58c.745,4.114,2.959,7.7,5.092,11.163,2.659,4.309,5.165,8.379,4.632,13.03-.789,6.84-9.476,12.376-17.147,17.261-6.663,4.246-12.953,8.257-12.025,11.739.234.867.65,2.053,1.125,3.427,2.155,6.163,5.757,16.48,4.091,28.157-2.024,14.2-11.353,26.147-27.726,35.522a.942.942,0,0,1-.46.121" transform="translate(675 243)" fill="#8c94a5"/>
  <path id="Fill_40" data-name="Fill 40" d="M41.094,24a.922.922,0,0,1-.17-.016c-.738-.14-18.354-3.644-40.6-22.387A.905.905,0,1,1,1.491.214C23.377,18.652,41.086,22.171,41.262,22.2a.906.906,0,0,1-.168,1.8" transform="translate(486 339)" fill="#edecf2"/>
  <path id="Fill_41" data-name="Fill 41" d="M51.093,31a.9.9,0,0,1-.273-.042C50.509,30.86,19.5,20.9.262,1.54A.9.9,0,0,1,1.549.267c18.924,19.051,49.512,28.87,49.818,28.968A.9.9,0,0,1,51.093,31" transform="translate(478 345)" fill="#edecf2"/>
  <path id="Fill_42" data-name="Fill 42" d="M10.01,26a.967.967,0,0,1-.474-.123C-.231,20.415-.475,14.153.25,10.906,1.5,5.309,7.264.724,13.956.005a.927.927,0,0,1,1.038.787.9.9,0,0,1-.826.987c-5.82.625-11.014,4.709-12.083,9.5S4,20.709,10.486,24.337a.871.871,0,0,1,.334,1.222.95.95,0,0,1-.81.441" transform="translate(401 140)" fill="#473305"/>
  <path id="Fill_43" data-name="Fill 43" d="M15,14.517c-2.689-2.006-3.161-4.143-3.887-5.551S6.871,4.574,7.568,1.587,2.827.748,2.827.748-1.1,10,.3,11.935c.412.569,1.119.4,1.88,1.083.294.263.567.776,1.04,1.029.619.331,1.207.192,1.679.479.835.506,1.044,1.337,2.1,1.464,2.035.244,2.559-4.319,2.559-4.319s1.048,3.587,3.3,4.105A1.73,1.73,0,0,0,15,14.517" transform="translate(315 201)" fill="#d86656"/>
  <path id="Fill_44" data-name="Fill 44" d="M9.144,0C8.573,3.645,6.588,5.236,5.519,6.683S3.557,13.323,0,14.249L1.609,19s11.376-1.247,12.616-3.627c.364-.7.21-1.753.488-2.844.108-.423.871-.72.865-1.308-.007-.769-.643-.953-.612-1.56.053-1.069,1.293-1.39.984-2.524-.295-1.085-6.683-.418-6.683-.418s2.054-4.085,1.7-5.5C10.734.317,9.144,0,9.144,0" transform="translate(458 198)" fill="#d86656"/>
  <path id="Fill_45" data-name="Fill 45" d="M2.2.006c-1.675-.3-4.195,10.6.449,12.774S3.9.311,2.2.006" transform="translate(267 300)" fill="#0e3e44"/>
  <path id="Fill_46" data-name="Fill 46" d="M.374,9.785C1.65,11.536,17.164,2.087,11.922.261S-1.895,6.668.374,9.785" transform="translate(466 392)" fill="#0e3e44"/>
  <path id="Fill_47" data-name="Fill 47" d="M1.926,13.992C4.634,9.216,9.4,2.334,7.606.279,4.365-2.346-3.661,14.408,1.926,13.992" transform="translate(258 298)" fill="#3a97a0"/>
  <path id="Fill_48" data-name="Fill 48" d="M8.4,0C4.814,4.235-1.218,10.173.216,12.551,3,15.77,14.09.64,8.4,0" transform="translate(473 397)" fill="#3a97a0"/>
  <path id="Fill_49" data-name="Fill 49" d="M.774.071c2.449-1,5.246,8.82,3.855,9.852S-1.938,1.178.774.071" transform="translate(456 211)" fill="#0e3e44"/>
  <path id="Fill_50" data-name="Fill 50" d="M8.027,0,0,10.065s1.919,6.72,7.74,7.859S23,7.087,23,7.087L8.027,0" transform="translate(403 167)" fill="#e77864"/>
  <path id="Fill_51" data-name="Fill 51" d="M0,0,1.169.266,15,6.84S13.507,8.74,11.323,11C5.918,8.334,1.177,1.874,0,0" transform="translate(412 167)" fill="#c6574b"/>
  <path id="Fill_52" data-name="Fill 52" d="M133.739,9.053v8.9L225,151.173,220.2,156,116.29,35.153S80.153,73.4,69.121,74.757,0,50.995,0,50.995l1.35-5.431S48.632,53.71,70.7,61.4L99.516,7.091,101.317,0l32.422,9.053" transform="translate(258 255)" fill="#d86656"/>
  <path id="Fill_53" data-name="Fill 53" d="M0,26.473s3.046,2.691,3.752,2.519c2.394-.582,12.343-10.134,13.715-10.921C20.085,16.57,31.215,5.573,31,3.263S28.179,0,28.179,0L0,26.473" transform="translate(478 390)" fill="#fff"/>
  <path id="Fill_54" data-name="Fill 54" d="M5.819,25.984C4.9,26.369-.021,19.664,0,18.637s6-1.846,7.236-5.027.465-6.336.847-6.945,13.16-.261,13.16-.261S33.281-1.172,32.995.156C31.157,8.675,9.5,24.442,5.819,25.984" transform="translate(473 390)" fill="#76cde1"/>
  <path id="Fill_55" data-name="Fill 55" d="M.843,7A.58.58,0,0,1,.779,7,.961.961,0,0,1,0,5.924l.315-5A.892.892,0,0,1,1.22,0,.961.961,0,0,1,2,1.077l-.315,5A.918.918,0,0,1,.843,7" transform="translate(484 395)" fill="#fff"/>
  <path id="Fill_56" data-name="Fill 56" d="M.843,7A.588.588,0,0,1,.779,7,.96.96,0,0,1,0,5.924l.315-5A.886.886,0,0,1,1.221,0,.959.959,0,0,1,2,1.077l-.315,5A.917.917,0,0,1,.843,7" transform="translate(489 395)" fill="#fff"/>
  <path id="Fill_57" data-name="Fill 57" d="M26,1.84S22.544-.267,21.887.028c-2.225,1-10.177,12.206-11.371,13.229C8.24,15.207-.6,28.048.032,30.286S3.371,33,3.371,33L26,1.84" transform="translate(233 291)" fill="#fff"/>
  <path id="Fill_58" data-name="Fill 58" d="M21.929.037c.832-.553,6.9,5.279,7.067,6.312s-5.552,2.94-6.179,6.354.71,6.438.447,7.117-12.876,2.648-12.876,2.648S-.037,32.249,0,30.866C.236,21.989,18.6,2.252,21.929.037" transform="translate(237 293)" fill="#76cde1"/>
  <path id="Fill_59" data-name="Fill 59" d="M1.21,7a.888.888,0,0,1-.783-.9L0,1.11A.972.972,0,0,1,.7.005c.431-.056.822.339.868.89L2,5.889a.972.972,0,0,1-.7,1.105A.623.623,0,0,1,1.21,7" transform="translate(256 308)" fill="#fff"/>
  <path id="Fill_60" data-name="Fill 60" d="M1.211,7a.888.888,0,0,1-.783-.9L0,1.11A.973.973,0,0,1,.7.005c.438-.055.822.34.868.891L2,5.889a.973.973,0,0,1-.7,1.1A.62.62,0,0,1,1.211,7" transform="translate(251 309)" fill="#fff"/>
  <path id="Fill_61" data-name="Fill 61" d="M0,42.3s1.313,8.277.461,12.62c1.43,1.435,53.98,29.217,66.578,24.552S107,34.523,107,34.523L87.416,0,57.591,57.2C42.294,43.053,9.149,44.914,0,42.3" transform="translate(270 259)" fill="#00999d"/>
  <path id="Fill_62" data-name="Fill 62" d="M11.284,44h0C19.452,33.636,26,24.032,26,24.032L18.969,11.683.926,0C.242,2.654-3.515,29.317,11.284,44" transform="translate(351 268)" fill="#056d6a"/>
  <path id="Fill_63" data-name="Fill 63" d="M8.212,0,40.548,9.021c17.081,19.057,89.573,129.42,86.348,129.8S115.089,147,115.089,147c-12.477-16.681-42.568-45.715-57.326-66.565C49.721,69.072,36.8,47.359,29.02,45.254S-16.339,30.37,8.212,0" transform="translate(352 255)" fill="#00999d"/>
  <path id="Fill_64" data-name="Fill 64" d="M92.092,132a.907.907,0,0,1-.751-.4c-6.534-9.576-19.783-28.459-35.078-47.35-5.866-7.246-11.93-14.6-17.793-21.721-23.08-28.01-36.1-44.043-35.381-47.844a1.53,1.53,0,0,1,.756-1.078A5.021,5.021,0,0,0,6.425,8.132,7.773,7.773,0,0,0,.735,1.8.907.907,0,1,1,1.082.017a9.532,9.532,0,0,1,7.137,7.83,6.769,6.769,0,0,1-3.36,7.275c-.3,3.4,18.448,26.153,35.012,46.256C45.738,68.5,51.8,75.86,57.675,83.112c15.337,18.94,28.616,37.872,35.167,47.469a.908.908,0,0,1-.75,1.419" transform="translate(378 266)" fill="#056d6a"/>
  <path id="Fill_65" data-name="Fill 65" d="M26.895,30.131C25.609,31.876,14.608,31.7,4.568,22.806S2.629-.7,13.55.026A22.877,22.877,0,0,1,29.937,8.365L31,22.3a6.963,6.963,0,0,1-2.888-.109c-1.168,1.409-.279,6.663-1.217,7.937" transform="translate(406 143)" fill="#e77864"/>
  <path id="Fill_66" data-name="Fill 66" d="M30.514,7.81a4.759,4.759,0,0,0-.766-.157l-.007,0A6.488,6.488,0,0,0,17.175,4.522a4.84,4.84,0,0,0-6.86,1.823A21.564,21.564,0,0,0,7.874,7.375C-2.575,12.595-2.133,26.035,6.3,32c19.933-10.715,9.467-18.425,12.3-19.6,2.05-.854,5.438,3.265,8.594,4.6.072.031.145.06.218.087s.165.06.247.087c.029.009.056.022.086.031l.043.011a3.93,3.93,0,0,0,1.233.186,4.9,4.9,0,0,0,1.5-9.586" transform="translate(405 134)" fill="#473305"/>
  <path id="Fill_67" data-name="Fill 67" d="M.167,2.862A4,4,0,1,0,5.138.166a4,4,0,0,0-4.971,2.7" transform="translate(415 154)" fill="#e77864"/>
  <path id="Fill_68" data-name="Fill 68" d="M.062,1.073A1.5,1.5,0,1,0,1.927.062,1.5,1.5,0,0,0,.062,1.073" transform="translate(418 157)" fill="#c6574b"/>
  <path id="Fill_69" data-name="Fill 69" d="M6.006,6c-.034,0-.067,0-.1,0a.956.956,0,0,1-.879-1.037A2.494,2.494,0,0,0,4.1,3.053,3.955,3.955,0,0,0,1.093,1.907.981.981,0,0,1,.006,1.073.954.954,0,0,1,.873.027,6.009,6.009,0,0,1,5.487,1.707a4.265,4.265,0,0,1,1.5,3.442A.97.97,0,0,1,6.006,6" transform="translate(410 138)" fill="#473305"/>
  <path id="Fill_70" data-name="Fill 70" d="M75,8.575C68.1,6.658,35.1-1.507,29.252.244S0,37.044,0,37.044L3.3,39S28.352,14.424,29.852,14,63,26.815,63,26.815L75,8.575" transform="translate(317 167)" fill="#d86656"/>
  <path id="Fill_71" data-name="Fill 71" d="M73,8.506c-6.934-1.9-40.117-10-46-8.264C22.664,1.523,7.022,19.564,0,29.584L8.108,36c6.109-7.162,19.954-20.737,21.041-21.039C30.658,14.541,60.938,26.6,60.938,26.6L73,8.506" transform="translate(320 167)" fill="#056d6a"/>
  <path id="Fill_72" data-name="Fill 72" d="M53.7.65S79.572-4.417,87.11,13.743c14.75,35.533-31.771,74.664-31.771,74.664s-45.2,4.048-55.339-9C21.479,61.719,40.125,6.448,53.7.65" transform="translate(336 175)" fill="#aa365d"/>
  <path id="Fill_73" data-name="Fill 73" d="M53.784,1.16S80.6-5.428,88.147,12.793c14.773,35.654-31.673,73.112-51.1,77.926C20.849,94.735,6.669,88.78,0,80.188,21.513,62.437,40.189,6.978,53.784,1.16" transform="translate(336 174)" fill="#00999d"/>
  <path id="Fill_74" data-name="Fill 74" d="M21,28.448,2.088,0C.032,11.523-1.674,35.34,2.921,54,10.465,46.686,17.225,38.037,21,28.448" transform="translate(403 191)" fill="#056d6a"/>
  <path id="Fill_75" data-name="Fill 75" d="M7.1.178c14.162-3.229,16.4,38.6,16.4,38.6,2.757-1.8,28.852-5.642,32.4-8.93L58,35.619c-3.056.224-35.623,20.664-38.828,19.318C14.893,53.138-12.755,4.7,7.1.178" transform="translate(404 181)" fill="#d86656"/>
  <path id="Fill_76" data-name="Fill 76" d="M7.076.178C21.195-3.05,23.424,38.766,23.424,38.766c2.749-1.795,28.534-8.637,28.534-8.637.335,3.926,4.422,9.086,4.013,9.983,0,0-33.662,16.154-36.858,14.807C14.848,53.123-12.716,4.7,7.076.178" transform="translate(404 181)" fill="#00999d"/>
  <path id="Fill_77" data-name="Fill 77" d="M0,7.266,9.427,0S22.137,6.625,28,16L0,7.266" transform="translate(395 168)" fill="#00999d"/>
  <path id="Fill_78" data-name="Fill 78" d="M17.107,47a.9.9,0,0,1-.891-.9c-.008-.352-.93-35.268-10.285-42.89A5.459,5.459,0,0,0,1.076,1.977.892.892,0,0,1,.019,1.268.919.919,0,0,1,.708.179,7.212,7.212,0,0,1,7.039,1.772C17.045,9.927,17.965,44.588,18,46.059a.908.908,0,0,1-.871.94h-.022" transform="translate(410 180)" fill="#056d6a"/>
  <path id="Fill_79" data-name="Fill 79" d="M3.154,8a.907.907,0,0,1-.846-.957A9.5,9.5,0,0,0,.248,1.633,1.048,1.048,0,0,1,.248.28a.779.779,0,0,1,1.2,0A11.4,11.4,0,0,1,4,7.043.907.907,0,0,1,3.154,8" transform="translate(428 219)" fill="#056d6a"/>
  <path id="Fill_80" data-name="Fill 80" d="M64.086,23a.917.917,0,0,1-.754-.39C52.185,6.655,26.616,4.445,11.338,3.125A70.966,70.966,0,0,1,.664,1.772.9.9,0,0,1,.035.656.917.917,0,0,1,1.166.034,70.876,70.876,0,0,0,11.5,1.325C27.1,2.673,53.2,4.929,64.838,21.584A.9.9,0,0,1,64.6,22.84a.916.916,0,0,1-.519.16" transform="translate(268 300)" fill="#056d6a"/>
  <path id="Fill_81" data-name="Fill 81" d="M7.9,3a14.68,14.68,0,0,1-4.564-.818A9.576,9.576,0,0,0,.864,1.644.854.854,0,0,1,0,.8.863.863,0,0,1,.922,0,11.09,11.09,0,0,1,3.9.622,11.7,11.7,0,0,0,9.007,1.3a.882.882,0,0,1,.988.724.84.84,0,0,1-.785.91A12.636,12.636,0,0,1,7.9,3" transform="translate(326 315)" fill="#056d6a"/>
  <path id="Fill_82" data-name="Fill 82" d="M6.113,9H6.075a.937.937,0,0,1-.842-1.01C5.365,4.45,3.859,2.411.757,1.932A.959.959,0,0,1,.009.836.9.9,0,0,1,1,.01c3.974.616,6.157,3.553,5.989,8.06A.924.924,0,0,1,6.113,9" transform="translate(410 134)" fill="#473305"/>
  <path id="Fill_83" data-name="Fill 83" d="M32.43,24C19.777,24,7.576,18.235.175,8.217a.9.9,0,0,1,.2-1.26.92.92,0,0,1,1.277.2c8.868,12.006,24.987,17.6,40.107,13.928,7.817-1.9,20.554-10.27,31.7-20.829a.919.919,0,0,1,1.291.026.892.892,0,0,1-.026,1.275C63.368,12.313,50.3,20.865,42.2,22.834A41.334,41.334,0,0,1,32.43,24" transform="translate(331 243)" fill="#056d6a"/>
  <path id="Fill_84" data-name="Fill 84" d="M58,18.611,45.082,50,0,31.389,12.918,0,58,18.611" transform="translate(296 171)" fill="#942916"/>
  <path id="Fill_85" data-name="Fill 85" d="M57,18.522,44.547,49,0,30.478,12.452,0,57,18.522" transform="translate(298 170)" fill="#feed93"/>
  <path id="Fill_86" data-name="Fill 86" d="M58,18.611,45.082,50,0,31.389,12.918,0,58,18.611" transform="translate(298 172)" fill="#942916"/>
  <path id="Fill_87" data-name="Fill 87" d="M1.393,6c-.034,0-.069,0-.1,0A1.435,1.435,0,0,1,0,4.439L.222,1.348A1.415,1.415,0,0,1,1.711,0,1.435,1.435,0,0,1,3,1.561L2.779,4.652A1.419,1.419,0,0,1,1.393,6" transform="translate(315 207)" fill="#d86656"/>
  <path id="Fill_88" data-name="Fill 88" d="M1.393,6c-.034,0-.068,0-.1,0A1.435,1.435,0,0,1,0,4.439l.217-3.09A1.414,1.414,0,0,1,1.71,0,1.435,1.435,0,0,1,3,1.561l-.217,3.09A1.419,1.419,0,0,1,1.393,6" transform="translate(317 209)" fill="#d86656"/>
  <path id="Fill_89" data-name="Fill 89" d="M1.393,6c-.034,0-.068,0-.1,0A1.435,1.435,0,0,1,0,4.439L.221,1.348A1.415,1.415,0,0,1,1.71,0,1.435,1.435,0,0,1,3,1.561L2.779,4.652A1.419,1.419,0,0,1,1.393,6" transform="translate(320 210)" fill="#d86656"/>
  <path id="Fill_90" data-name="Fill 90" d="M15.06,63.949.123,14.107a2.884,2.884,0,0,1,1.918-3.59L36.37.123A2.864,2.864,0,0,1,39.94,2.051L54.877,51.893a2.884,2.884,0,0,1-1.918,3.59L18.631,65.877a2.864,2.864,0,0,1-3.571-1.928" transform="translate(36 195)" fill="#ed9520"/>
  <path id="Fill_91" data-name="Fill 91" d="M8.152,27a1.008,1.008,0,0,1-.968-.692A.966.966,0,0,1,7.86,25.1l6.87-1.989L8.172,2.183,1.3,4.172a1.017,1.017,0,0,1-1.259-.65A.966.966,0,0,1,.72,2.311L8.557.042a1.017,1.017,0,0,1,1.26.65l7.141,22.787a.939.939,0,0,1-.077.739,1,1,0,0,1-.6.47l-7.837,2.27A1.052,1.052,0,0,1,8.152,27" transform="translate(77 208)" fill="#ffc042"/>
  <path id="Fill_92" data-name="Fill 92" d="M33.879,52.576,18.068.791a3,3,0,0,0-.186-.443A2.925,2.925,0,0,0,15.665.122L5,3.29C-.124,10.712-1.606,22.2,1.944,33.825,5.631,45.9,13.756,54.914,22.568,58l9.872-2.933A2.872,2.872,0,0,0,33.94,54a2.918,2.918,0,0,0-.061-1.426" transform="translate(57 195)" fill="#e08312"/>
  <path id="Fill_93" data-name="Fill 93" d="M1.833,34.062C5.534,46.54,13.984,55.641,22.9,58l7.065-2.161a2.908,2.908,0,0,0,1.91-3.613L17,2.064A2.847,2.847,0,0,0,13.446.124L6.381,2.286c-6.152,6.97-8.248,19.3-4.548,31.776" transform="translate(59 195)" fill="#ffc042"/>
  <path id="Fill_94" data-name="Fill 94" d="M.871,6.85.065,4.03A1.634,1.634,0,0,1,1.091,2.016L7.22.069A1.52,1.52,0,0,1,9.129,1.15l.806,2.82A1.632,1.632,0,0,1,8.909,5.983L2.78,7.931A1.52,1.52,0,0,1,.871,6.85" transform="translate(56 225)" fill="#e08312"/>
  <path id="Fill_95" data-name="Fill 95" d="M.871,6.849.065,4.03A1.632,1.632,0,0,1,1.091,2.017L7.22.069A1.521,1.521,0,0,1,9.129,1.15l.806,2.82A1.633,1.633,0,0,1,8.909,5.984L2.78,7.931A1.52,1.52,0,0,1,.871,6.849" transform="translate(57 225)" fill="#ffc661"/>
  <path id="Fill_96" data-name="Fill 96" d="M.014.133c-.374.94,6.614,8.018,9.533,5.214S.347-.7.014.133" transform="translate(91 210)" fill="#732346"/>
  <path id="Fill_97" data-name="Fill 97" d="M9.486,20.991c-.615-3.779.707-5.921,1.237-7.661s.3-7.987,3.277-9.916L10.457,0S.413,4.47.018,7.183c-.116.8.356,1.8.441,2.96.034.45-.573.962-.385,1.544.247.761.888.763,1.05,1.373.285,1.076-.751,1.747-.115,2.784.61.993,6.263-1.484,6.263-1.484S6.665,19,7.437,20.3c.492.831,2.049.693,2.049.693" transform="translate(85 210)" fill="#d86656"/>
  <path id="Fill_98" data-name="Fill 98" d="M3.3,2.542C2.771,4.306,3.091,10.611,0,12.6L3.759,16S14.614,11.286,14.99,8.542c.111-.805-.779-1.739-.884-2.909-.041-.455.589-.979.383-1.564-.268-.765-.941-.759-1.119-1.373-.313-1.083.1-1.4-.582-2.437-.652-.995-5.881,1.2-5.881,1.2S3.835.779,3.3,2.542" transform="translate(269 189)" fill="#d86656"/>
  <path id="Fill_99" data-name="Fill 99" d="M15,5.36,0,0V5S5.7,9.1,14.089,15L15,5.36" transform="translate(15 260)" fill="#e77864"/>
  <path id="Fill_100" data-name="Fill 100" d="M122.155,0l-64.3,41.908L.9,21.319,0,30.947C21,45.881,59.1,72.369,65.891,72.982,75.365,73.838,150,43.625,150,43.625L122.155,0" transform="translate(29 245)" fill="#155763"/>
  <path id="Fill_101" data-name="Fill 101" d="M2.769,60l7.89-2.932C29.285,50.078,46,43.365,46,43.365L18.106,0C9.7,14.24-6.476,32.689,2.769,60" transform="translate(133 245)" fill="#0e3e44"/>
  <path id="Fill_102" data-name="Fill 102" d="M21,1.329S17.619-.3,17.048.048c-1.94,1.175-8.1,12.542-9.089,13.629C6.069,15.748-.74,28.749.066,30.791S3.4,33,3.4,33L21,1.329" transform="translate(0 256)" fill="#edecf2"/>
  <path id="Fill_103" data-name="Fill 103" d="M17.732.054c.737-.618,6.281,4.228,6.268,6.7-.005,1.008-3.851,2-4.093,5.333S22,16.7,21.892,17.393c-.322,2.126-12.83,5.354-12.83,5.354S.133,33.211.023,31.884C-.681,23.36,14.781,2.526,17.732.054" transform="translate(4 257)" fill="#1a1511"/>
  <path id="Fill_104" data-name="Fill 104" d="M2.008,6a.974.974,0,0,1-.967-.707L.023,1.094A.905.905,0,0,1,.778.02,1,1,0,0,1,1.96.706l1.017,4.2a.9.9,0,0,1-.754,1.073A1.153,1.153,0,0,1,2.008,6" transform="translate(19 272)" fill="#fff"/>
  <path id="Fill_105" data-name="Fill 105" d="M2.008,6a.974.974,0,0,1-.967-.707L.024,1.094A.9.9,0,0,1,.778.02,1,1,0,0,1,1.959.707l1.017,4.2a.9.9,0,0,1-.754,1.073A1.153,1.153,0,0,1,2.008,6" transform="translate(15 273)" fill="#fff"/>
  <path id="Fill_106" data-name="Fill 106" d="M6,1.623,1.254,0,0,13.836C1.405,14.864,3.491,15.886,5.02,17L6,1.623" transform="translate(29 264)" fill="#0e3e44"/>
  <path id="Fill_107" data-name="Fill 107" d="M0,4.189C6.067,13.457,10.234,20,10.234,20L14,17.873S11.736,10.664,8.268,0L0,4.189" transform="translate(284 400)" fill="#e77864"/>
  <path id="Fill_108" data-name="Fill 108" d="M2.788.07C11.393-1.376,40.85,20.143,40.85,20.143L72.282,5.557c2.135-.208,4.813,4.408,5.718,5.8,0,0-28.238,32.188-36.927,29.486C11.933,31.776,8.248,26.928,8.248,26.928S-5.818,1.515,2.788.07" transform="translate(197 193)" fill="#732346"/>
  <path id="Fill_109" data-name="Fill 109" d="M7.616,1.4C4.752,8.026-13.149,31.05,18.567,48.764S86.651,85.77,102.115,105.35c9.507,12.038,25.292,36.552,36.042,53.65L147,154.6c-9.058-29-25.269-79.128-31.712-87.834-9.164-12.382-53.264-47.8-53.264-47.8L40.571,0,7.616,1.4" transform="translate(144 243)" fill="#155763"/>
  <path id="Fill_110" data-name="Fill 110" d="M13.022,0,0,11.762s10.428,8.078,16.048,9.173S29,8.892,29,8.892L13.022,0" transform="translate(183 167)" fill="#e77864"/>
  <path id="Fill_111" data-name="Fill 111" d="M25.159,28.187c-1.2,1.633-11.494,1.47-20.886-6.852S2.459-.653,12.675.024a21.4,21.4,0,0,1,15.33,7.8L29,20.864a6.508,6.508,0,0,1-2.7-.1c-1.093,1.318-.262,6.233-1.14,7.425" transform="translate(191 146)" fill="#e77864"/>
  <path id="Fill_112" data-name="Fill 112" d="M32.485,29.4c8.435,1.633.957,17.625.814,19.868S9.511,49.08,15.036,34.836c4.635-11.95,1.525-9.516,1.525-9.516L5.69,34.442s-12.451-19.1-.516-30.4c9.709-9.189,20.532.435,31.045-1.591,2.279,3.4,5.758,10.906-2.016,13.628-8.113,2.841-14.305,9.109-8.5,14.085,2.788,2.388,4.614-1.183,6.78-.764" transform="translate(185 138)" fill="#1a1511"/>
  <path id="Fill_113" data-name="Fill 113" d="M.187,3.22A4.5,4.5,0,1,0,5.78.187,4.5,4.5,0,0,0,.187,3.22" transform="translate(197 156)" fill="#e77864"/>
  <path id="Fill_114" data-name="Fill 114" d="M.083,1.431A2,2,0,1,0,2.569.083,2,2,0,0,0,.083,1.431" transform="translate(200 158)" fill="#c6574b"/>
  <path id="Fill_115" data-name="Fill 115" d="M.916,23a.914.914,0,0,1-.875-.638.9.9,0,0,1,.608-1.123c1.483-.444,2.857-.783,4.187-1.112,4.379-1.08,7.543-1.861,9.392-5.2.4-.727,3.685-7.281-4.866-13.29A.89.89,0,0,1,9.15.376.926.926,0,0,1,10.427.168c7.985,5.61,7.158,12.453,5.411,15.613-2.234,4.039-6.09,4.99-10.556,6.091-1.308.323-2.66.656-4.1,1.087A.939.939,0,0,1,.916,23" transform="translate(210 135)" fill="#191410"/>
  <path id="Fill_116" data-name="Fill 116" d="M0,67.492C4.423,36.99,6.7,23.869,27.54,0c31.425,0,33.343,30.126,34.1,38.76C63.988,65.738,54.154,85,54.154,85,36.045,74.811,25.51,91.6,0,67.492" transform="translate(152 177)" fill="#aa365d"/>
  <path id="Fill_117" data-name="Fill 117" d="M80,7.255S51.436-.43,45.406.019C31.09,1.083,0,30.773,0,30.773.532,33.425,6.813,34.014,9.065,36c0,0,27.06-17.6,33.1-17.6,2.384,0,28.423,15.157,28.423,15.157L80,7.255" transform="translate(91 180)" fill="#aa365d"/>
  <path id="Fill_118" data-name="Fill 118" d="M30,10.9A97.466,97.466,0,0,1,2.981,0L1.868,3.737C1.146,6.482.53,9.174,0,11.754,7.258,15.12,23.687,14.6,30,10.9" transform="translate(156 211)" fill="#732346"/>
  <path id="Fill_119" data-name="Fill 119" d="M53.1,20a.893.893,0,0,1-.738-.39C48.609,14.128,28.086,4.634.806,1.806A.906.906,0,0,1,.988,0c28.181,2.922,48.8,12.664,52.852,18.574a.911.911,0,0,1-.227,1.26A.883.883,0,0,1,53.1,20" transform="translate(139 180)" fill="#732346"/>
  <path id="Fill_120" data-name="Fill 120" d="M0,15.74S1.994,19,2.688,19c2.349.016,14.178-6.232,15.644-5.92,2.819.6,16.13-7.309,16.6-9.415S33.309,0,33.309,0L0,15.74" transform="translate(287 402)" fill="#edecf2"/>
  <path id="Fill_121" data-name="Fill 121" d="M1.923,17C.98,17.1-.885,9.977.488,7.943c.561-.83,4.256.515,6.293-2.1s.834-4.985,1.3-5.5C9.519-1.232,21.537,3.136,21.537,3.136S34.62-.485,33.977.673C29.852,8.107,5.7,16.617,1.923,17" transform="translate(286 401)" fill="#1a1511"/>
  <path id="Fill_122" data-name="Fill 122" d="M1.063,6a1.189,1.189,0,0,1-.392-.066.9.9,0,0,1-.6-1.212L1.949.589A1.113,1.113,0,0,1,3.329.067a.9.9,0,0,1,.6,1.211L2.051,5.412A1.071,1.071,0,0,1,1.063,6" transform="translate(296 401)" fill="#fff"/>
  <path id="Fill_123" data-name="Fill 123" d="M1.063,6A1.2,1.2,0,0,1,.67,5.934.9.9,0,0,1,.075,4.723L1.949.589A1.115,1.115,0,0,1,3.329.067a.9.9,0,0,1,.6,1.211L2.051,5.412A1.071,1.071,0,0,1,1.063,6" transform="translate(300 402)" fill="#fff"/>
  <path id="Fill_124" data-name="Fill 124" d="M0,7.457,1.826,12,14,5.3,12.662,0,0,7.457" transform="translate(280 393)" fill="#0e3e44"/>
  <path id="Fill_125" data-name="Fill 125" d="M40.052,25c-.024,0-.047,0-.072,0a.914.914,0,0,1-.849-.976C39.9,14.072,21.7,8.536,9.655,4.873A70.225,70.225,0,0,1,.505,1.722.9.9,0,0,1,.1.5.927.927,0,0,1,1.34.1,71.4,71.4,0,0,0,10.2,3.133C22.8,6.967,41.852,12.761,40.97,24.159a.917.917,0,0,1-.918.841" transform="translate(53 273)" fill="#0e3e44"/>
  <path id="Fill_126" data-name="Fill 126" d="M1.152,7H1.1A1.173,1.173,0,0,1,0,5.762L.178,1.7A1.173,1.173,0,0,1,1.188.574L5.709.009A1.162,1.162,0,0,1,6.992,1.042a1.179,1.179,0,0,1-1,1.319l-3.554.445L2.3,5.868A1.167,1.167,0,0,1,1.152,7" transform="translate(272 188)" fill="#d86656"/>
  <path id="Fill_127" data-name="Fill 127" d="M13.052,8a.969.969,0,0,1-.777-.379C10.026,4.613,3.515,2.18.8,1.773A.9.9,0,0,1,.012.751.943.943,0,0,1,1.1.011C4.254.484,11.206,3.089,13.828,6.6A.858.858,0,0,1,13.6,7.837.979.979,0,0,1,13.052,8" transform="translate(85 287)" fill="#0e3e44"/>
  <path id="Fill_128" data-name="Fill 128" d="M6.3,11a.922.922,0,0,1-.889-.775c-.029-.155-.057-.348-.089-.574A9.888,9.888,0,0,0,.467,1.8.994.994,0,0,1,.114.5.881.881,0,0,1,1.347.121c4.861,2.86,5.375,7.627,5.647,9.536.028.192-.024,1.221-.515,1.325A.875.875,0,0,1,6.3,11" transform="translate(217 137)" fill="#191410"/>
  <path id="Fill_129" data-name="Fill 129" d="M119.089,141a.913.913,0,0,1-.83-.532c-.266-.582-26.746-58.367-34.969-73.376C75.052,52.058,12.335,8.907.437,1.684A.909.909,0,1,1,1.387.133c9.709,5.9,74.67,49.967,83.5,66.089,8.254,15.065,34.761,72.91,35.028,73.493a.91.91,0,0,1-.829,1.285" transform="translate(168 259)" fill="#0e3e44"/>
  <path id="Fill_130" data-name="Fill 130" d="M34.613,21C23.249,21,12.12,18.112.17,1.438A.911.911,0,0,1,1.655.381C16.142,20.6,28.814,19.758,43.487,18.787a89.733,89.733,0,0,1,16.707-.036.909.909,0,1,1-.212,1.807,88.367,88.367,0,0,0-16.374.044c-3.026.2-6.019.4-8.995.4" transform="translate(145 240)" fill="#aa365d"/>
  <path id="Fill_131" data-name="Fill 131" d="M43.089,67a.91.91,0,0,1-.727-.361C35.306,57.322,4.1,9.106.1,1.332A.912.912,0,1,1,1.722.495C5.706,8.231,36.783,56.251,43.815,65.534A.913.913,0,0,1,43.089,67" transform="translate(239 335)" fill="#0e3e44"/>
  <path id="Fill_132" data-name="Fill 132" d="M.267.2c.466-.7,9.4.587,8.692,2.019S-1.746,3.2.267.2" transform="translate(637 215)" fill="#ed9520"/>
  <path id="Fill_133" data-name="Fill 133" d="M5.014,16,14.3,4.955A2.982,2.982,0,0,0,13.86.685a3.175,3.175,0,0,0-4.309.344L0,11.611,5.014,16" transform="translate(632 210)" fill="#f69865"/>
  <path id="Fill_134" data-name="Fill 134" d="M17.017,2.908l-.186.075a.946.946,0,0,0-.193.087,1.562,1.562,0,0,1-.126.1l-.593.4c-.258.192-.546.389-.865.642-1.274.973-2.953,2.407-4.586,3.89s-3.231,3.015-4.4,4.184-1.917,1.967-1.917,1.967a2.367,2.367,0,0,1-3.421.049,2.555,2.555,0,0,1-.047-3.531,2.392,2.392,0,0,1,.193-.184L.9,10.564s.877-.747,2.211-1.819S6.243,6.287,8.086,4.957,11.8,2.347,13.3,1.446c.366-.229.734-.428,1.045-.607l.47-.245.21-.107L15.281.37l.456-.19A2.042,2.042,0,0,1,15.992.1L16.185.05a1.442,1.442,0,0,1,1.767,1.061,1.5,1.5,0,0,1-.871,1.771l-.064.025" transform="translate(644 200)" fill="#f69865"/>
  <path id="Fill_135" data-name="Fill 135" d="M1.772,18a1.765,1.765,0,0,1-1.06-3.181L20.171.35a1.767,1.767,0,1,1,2.117,2.831L2.83,17.65A1.77,1.77,0,0,1,1.772,18" transform="translate(640 195)" fill="#155763"/>
  <path id="Fill_136" data-name="Fill 136" d="M49.49,0,59,34.621,9.51,49,0,14.379,49.49,0" transform="translate(517 211)" fill="#155763"/>
  <path id="Fill_137" data-name="Fill 137" d="M128,16.528S79.877,62.358,72.188,64.251,0,63.851,0,63.851l.793-6.142L66.147,47.488,89.9,0,128,16.528" transform="translate(441 244)" fill="#e77864"/>
  <path id="Fill_138" data-name="Fill 138" d="M42.419,18.026C55.379,28.109,82,55.837,82,64.574,82,72.041,41.7,133.653,27.034,157l-7.491-1.457L57.754,66.637s-75.628-36.8-53.8-65.186L20.589,0l21.83,18.026" transform="translate(527 243)" fill="#e77864"/>
  <path id="Fill_139" data-name="Fill 139" d="M32,8.556,6.123,0,0,12.1c2.872,1.521,7.89,4.48,19.758,6.9C23.544,15.891,27.751,12.283,32,8.556" transform="translate(507 279)" fill="#c6574b"/>
  <path id="Fill_140" data-name="Fill 140" d="M44,0V0H.121S.062.217,0,.589C5.484,4.816,10.138,8,14.877,11,29.939,8.585,36.96,3.145,44,0" transform="translate(556 291)" fill="#c6574b"/>
  <path id="Fill_141" data-name="Fill 141" d="M17,17.7C15.433,14.233,9.968,3.823,7.773,1.536S0,.193,0,.193l6.7,14.38L15.126,19,17,17.7" transform="translate(546 398)" fill="#e77864"/>
  <path id="Fill_142" data-name="Fill 142" d="M20.379,17.189C10.748,19.614,11.586,6.042,4.119,0,.908,1.555-.232,5.4.038,6.688.968,8.829,1.779,22.7,1.779,22.7h.96s-.24-11.411.69-11.734c.89-.309,1.907.653,1.994.737,2.9,4.291,3.816,9.144,7.757,10.938C15.3,23.613,28.06,22.47,28,20.768s-2.64-.821-7.621-3.579" transform="translate(542 398)" fill="#155763"/>
  <path id="Fill_143" data-name="Fill 143" d="M1.309,17c3.308-1.629,13.208-7.25,15.353-9.446S17.729,0,17.729,0L4.027,6.946,0,15.232,1.309,17" transform="translate(424 301)" fill="#e77864"/>
  <path id="Fill_144" data-name="Fill 144" d="M6.163,20.391C3.407,11,17.138,11.384,23,3.846c-1.673-3.1-5.589-4.1-6.884-3.793C13.984,1.037,0,2.286,0,2.286l.03.944s11.514-.608,11.87.3c.341.865-.6,1.895-.68,1.983C6.98,8.5,2.109,9.559.424,13.491-.484,15.611,1.078,28.114,2.794,28s.745-2.622,3.369-7.608" transform="translate(419 298)" fill="#155763"/>
  <path id="Fill_145" data-name="Fill 145" d="M2.421,9a1.883,1.883,0,0,1-.963-.269C-.774,7.4.134,2.263.465.722A.894.894,0,0,1,.913.138,1.1,1.1,0,0,1,1.45,0,1.131,1.131,0,0,1,1.7.028L6.249,1.072a.991.991,0,0,1,.614.411.814.814,0,0,1,.105.676C6.044,5.28,4.5,9,2.421,9ZM2.256,1.993c-.384,2.363-.3,4.582.2,5.162.583-.456,1.572-2.429,2.3-4.588Z" transform="translate(619 166)" fill="#155763"/>
  <path id="Fill_146" data-name="Fill 146" d="M119.51,2.419C107.784-5.349,94.092,8,87.367,8.894,78.5,10.079,75.494,3.662,64.239,5.1,49.705,6.958,45.747,15.6,41.076,16.706c-4.136.979-10.239.106-16.2.07C16.213,16.725,5.4,23.8,0,32.88,39.165,52.224,32.736,86.748,78.952,82.668c23.6-2.084,48.215-9.957,47.87-24.867-.361-15.581-4.829-19.443,4.173-30.228,5.2-6.233-11.485-25.154-11.485-25.154" transform="translate(486 140)" fill="#942916"/>
  <path id="Fill_147" data-name="Fill 147" d="M5.175,41C-10.765,32.121,12.736,4.322,40.062.26S5.175,41,5.175,41" transform="translate(536 186)" fill="#ed9520"/>
  <path id="Fill_148" data-name="Fill 148" d="M49.49,0,59,34.621,9.51,49,0,14.379,49.49,0" transform="translate(517 210)" fill="#feed93"/>
  <path id="Fill_149" data-name="Fill 149" d="M49.49,0,59,34.621,9.51,49,0,14.379,49.49,0" transform="translate(519 211)" fill="#155763"/>
  <path id="Fill_150" data-name="Fill 150" d="M17.575,0,0,17.462s5.216,8.433,10.714,9.484S21,13.494,21,13.494L17.575,0" transform="translate(582 168)" fill="#e77864"/>
  <path id="Fill_151" data-name="Fill 151" d="M2.817,18A47.559,47.559,0,0,0,5,12.77L2.084,1.694.764,0C.405,1.086-1.6,10.525,2.817,18" transform="translate(599 170)" fill="#c6574b"/>
  <path id="Fill_152" data-name="Fill 152" d="M3.845,27.917s10.033,3.211,12.709,1.66c1.969-1.141,2.349-6.915,2.349-6.915s1.9.484,2.832-.346c-2.59-5.22,4.16-13.462,1.727-16.872C16.9-3.753,1.552-1.677.1,14.581-.714,23.63,3.845,27.917,3.845,27.917" transform="translate(599 155)" fill="#e77864"/>
  <path id="Fill_153" data-name="Fill 153" d="M14.938,23c3.011-1.824,19.965.388,20.8-2.931S36.728-1.133,15.789.057C1.629.861,0,19.064,0,19.064L14.938,23" transform="translate(589 142)" fill="#942916"/>
  <path id="Fill_154" data-name="Fill 154" d="M25.921,0C4.9,4.759,9.019,34.1,0,39.857c18.035,17.976,73.244,19.637,94,6.634C77.878,27.5,64.052,16.436,64.052,16.436L45.089,4.931,25.921,0" transform="translate(505 244)" fill="#aa365d"/>
  <path id="Fill_155" data-name="Fill 155" d="M.437,0,5,1.156S2.87,9.1,1.007,7.87.437,0,.437,0" transform="translate(616 166)" fill="#fff"/>
  <path id="Fill_156" data-name="Fill 156" d="M2.421,9a1.883,1.883,0,0,1-.963-.269C-.774,7.4.134,2.264.465.723A.9.9,0,0,1,.913.138,1.1,1.1,0,0,1,1.45,0,1.131,1.131,0,0,1,1.7.028L6.25,1.072a.991.991,0,0,1,.613.411.8.8,0,0,1,.105.676C6.043,5.28,4.5,9,2.421,9ZM2.256,1.993c-.384,2.364-.3,4.583.2,5.162.593-.457,1.56-2.386,2.3-4.588Z" transform="translate(615 166)" fill="#155763"/>
  <path id="Fill_157" data-name="Fill 157" d="M16.055,6a.9.9,0,0,1-.229-.03l-15.11-4A1.007,1.007,0,0,1,.028.76.943.943,0,0,1,1.175.03l15.109,4a1.007,1.007,0,0,1,.688,1.215.956.956,0,0,1-.916.76" transform="translate(600 161)" fill="#155763"/>
  <path id="Fill_158" data-name="Fill 158" d="M.146,2.5A3.5,3.5,0,1,0,4.5.145,3.5,3.5,0,0,0,.146,2.5" transform="translate(597 162)" fill="#e77864"/>
  <path id="Fill_159" data-name="Fill 159" d="M.063,1.073A1.5,1.5,0,1,0,1.927.062,1.5,1.5,0,0,0,.063,1.073" transform="translate(599 164)" fill="#c6574b"/>
  <path id="Fill_160" data-name="Fill 160" d="M.911,14a.909.909,0,0,1-.832-.551A.937.937,0,0,1,.54,12.223c6.066-2.753,10.535-2.15,14.857-1.57a35.645,35.645,0,0,0,6.921.46c2.525-.143,4.5-1.777,7-3.845C33.605,3.724,38.933-.684,50.008.089A37.642,37.642,0,0,1,60.917,2.71c5.745,2.071,10.7,3.858,21.826-.807a.905.905,0,0,1,1.188.5.935.935,0,0,1-.5,1.212C71.671,8.556,66.153,6.567,60.311,4.46A36.176,36.176,0,0,0,49.883,1.941C39.533,1.215,34.5,5.371,30.466,8.71c-2.647,2.189-4.934,4.079-8.047,4.256a36.7,36.7,0,0,1-7.262-.473C10.9,11.921,6.876,11.379,1.281,13.92a.9.9,0,0,1-.37.08" transform="translate(504 141)" fill="#942916"/>
  <g id="Group_163" data-name="Group 163" transform="translate(496 283)">
    <path id="Clip_162-2" data-name="Clip 162" d="M56.939,19.534c-.695,0-1.388-.007-2.083-.022-14.028-.289-34.868-3.63-54.487-17.9A.884.884,0,0,1,.177.363.916.916,0,0,1,1.446.175c31.839,23.161,75.6,21.3,99.515,6.127a.917.917,0,0,1,1.253.267.885.885,0,0,1-.271,1.234c-11.813,7.5-28.116,11.731-45,11.731" transform="translate(0.098 0.388)" fill="none"/>
    <g id="Group_163-2" data-name="Group 163" clip-path="url(#clip-path)">
      <path id="Fill_161" data-name="Fill 161" d="M56.939,19.534c-.695,0-1.388-.007-2.083-.022-14.028-.289-34.868-3.63-54.487-17.9A.884.884,0,0,1,.177.363.916.916,0,0,1,1.446.175c31.839,23.161,75.6,21.3,99.515,6.127a.917.917,0,0,1,1.253.267.885.885,0,0,1-.271,1.234c-11.813,7.5-28.116,11.731-45,11.731" transform="translate(0.098 0.388)" fill="url(#linear-gradient)"/>
    </g>
  </g>
  <path id="Fill_164" data-name="Fill 164" d="M9.88,9a.968.968,0,0,1-.537-.161.892.892,0,0,1-.258-1.253,2.972,2.972,0,0,0-.663-1.951C7.739,4.589,5.636,2.122.888,1.826A.927.927,0,0,1,0,.855.944.944,0,0,1,1.011,0C6.125.321,9.234,2.983,10.44,5.367c.657,1.3.741,2.511.225,3.236A.961.961,0,0,1,9.88,9" transform="translate(596 136)" fill="#942916"/>
  <path id="Fill_165" data-name="Fill 165" d="M15.962,13a.926.926,0,0,1-.3-.051.955.955,0,0,1-.588-1.208c.189-.558-.137-2.178-1.45-4.033C12.383,5.963,8.674,1.9.943,1.9A.947.947,0,0,1,0,.952.947.947,0,0,1,.943,0c8.607,0,12.8,4.615,14.21,6.6,1.5,2.117,2.167,4.377,1.7,5.756a.944.944,0,0,1-.892.645" transform="translate(592 131)" fill="#942916"/>
  <path id="Fill_166" data-name="Fill 166" d="M51.795.412c6.848,2.65,21.18,6.218,20.153,26.682C70.837,49.218,38.254,76,38.254,76,27.363,68.716,3.515,67.051,0,59.351c0,0,35.855-65.107,51.795-58.939" transform="translate(531 185)" fill="#ffc042"/>
  <path id="Fill_167" data-name="Fill 167" d="M2.2,0C1.072,6.519-2.172,22.743,2.28,38A109.3,109.3,0,0,0,13,24.121L2.2,0" transform="translate(582 208)" fill="#ed9520"/>
  <path id="Fill_168" data-name="Fill 168" d="M4.8.261C17.023-3.451,28.832,33.693,28.832,33.693l24.33-18.247C52.906,18.662,62,17.286,62,17.286S40.49,57.054,25.794,58.975C15.25,60.352-10.663,4.958,4.8.261" transform="translate(584 200)" fill="#ffc042"/>
  <path id="Fill_169" data-name="Fill 169" d="M0,0C3.554,4.1,7.32,6.171,11,11,8.542,4.815,3.336.2,0,0" transform="translate(591 188)" fill="#e77864"/>
  <path id="Fill_170" data-name="Fill 170" d="M73,0c-4.448,5.946-2.341,15.706-7.417,22.126-7.825,9.9-16.277,3.535-21.861,12.269-3.68,5.757-10.567,10.5-20.514,9.462S0,29.422,0,29.422L73,0" transform="translate(527 169)" fill="#942916"/>
  <path id="Fill_171" data-name="Fill 171" d="M.916,37a.916.916,0,0,1-.856-.584.9.9,0,0,1,.531-1.167c2.1-.788,3.27-2.95,4.625-5.453,2.047-3.782,4.367-8.068,10.685-8.837C24.575,19.9,26.926,10.642,28.176.793a.915.915,0,0,1,1.817.224c-.9,7.117-2.581,20.363-13.868,21.737-5.375.655-7.367,4.335-9.293,7.895-1.465,2.707-2.849,5.264-5.591,6.291A.911.911,0,0,1,.916,37" transform="translate(566 178)" fill="#942916"/>
  <path id="Fill_172" data-name="Fill 172" d="M39.078,17a.914.914,0,0,1-.4-.09c-3.232-1.552-9.215-2.594-15.548-3.7C12.485,11.356,2.426,9.6.373,5.063A4.782,4.782,0,0,1,.918.443.921.921,0,1,1,2.49,1.4,3.016,3.016,0,0,0,2.051,4.3c1.65,3.651,12.141,5.479,21.4,7.093,6.462,1.126,12.567,2.189,16.027,3.851a.924.924,0,0,1-.4,1.758" transform="translate(530 243)" fill="#ffc042"/>
  <path id="Fill_173" data-name="Fill 173" d="M1.434,9.285l.507-.124c.072-.019.189-.041.247-.065a1.076,1.076,0,0,1,.125-.063,1.187,1.187,0,0,1,.154-.053c.064-.027.152-.09.235-.135s.176-.095.268-.156l.279-.217a5.952,5.952,0,0,0,.591-.536c.188-.22.4-.439.579-.7a8.114,8.114,0,0,0,.538-.813c.182-.276.316-.586.475-.877.128-.3.278-.6.379-.9A8.734,8.734,0,0,0,6.1,3.784c.093-.278.133-.538.193-.781s.071-.456.1-.649c.011-.182.02-.341.028-.471C6.41,1.653,6.4,1.521,6.4,1.521L6.4,1.3a1.239,1.239,0,0,1,2.462-.245l.107.679c.01.2.022.448.035.731-.009.27-.015.578-.043.9s-.067.677-.143,1.033c-.06.363-.144.74-.247,1.123S8.333,6.3,8.208,6.7c-.157.39-.292.795-.487,1.18a11.156,11.156,0,0,1-.6,1.151A12.561,12.561,0,0,1,6.4,10.1a9.377,9.377,0,0,1-.833.941l-.434.414c-.15.126-.312.239-.46.351s-.284.216-.446.314l-.508.27-.457.22c-.125.053-.189.07-.274.1l-.492.175A1.882,1.882,0,0,1,1.247,9.34c.061-.021.126-.041.187-.056" transform="translate(640 202)" fill="#f69865"/>
  <path id="Fill_174" data-name="Fill 174" d="M25.1,40a.9.9,0,0,1-.9-.907C24.2,32.611,16.86,10.6,7.645,3.7,5.363,2,3.181,1.445,1.16,2.066a.9.9,0,0,1-1.121-.6A.909.909,0,0,1,.638.329c2.6-.794,5.314-.151,8.077,1.918C18.519,9.584,26,32.159,26,39.093a.9.9,0,0,1-.9.907" transform="translate(589 198)" fill="#ed9520"/>
  <path id="Fill_175" data-name="Fill 175" d="M5.07,11a.935.935,0,0,1-.926-.881c-.3-4.592-2.685-7.686-3.73-8.393A.95.95,0,0,1,.156.42.921.921,0,0,1,1.444.158C3.03,1.23,5.667,4.848,6,10a.937.937,0,0,1-.867,1L5.07,11" transform="translate(612 231)" fill="#ed9520"/>
  <path id="Fill_176" data-name="Fill 176" d="M0,39.857C11.628,51.375,38.616,56.195,62,54.751,41.2,41.964,11.33,19.068,26.085,0,4.928,4.759,9.076,34.1,0,39.857" transform="translate(504 244)" fill="#732346"/>
  <path id="Fill_177" data-name="Fill 177" d="M731.089,2H.911A.958.958,0,0,1,0,1,.958.958,0,0,1,.911,0H731.089A.959.959,0,0,1,732,1a.958.958,0,0,1-.911,1" transform="translate(16 421)" fill="#8c94a5"/>
<!--  <path zid="Fill_178" data-name="Fill 178" d="M1.42,34H140c-27.586-2.155-29.117-18.736-40.194-20.352-5.4-.788-15.632,4.489-22.351,4.489S59.115,0,50.943,0C41.864,0,37.432,21.519,33.511,22.986c-2.915,1.091-10.149-7.224-17.684-8.62C6,12.545-3.715,18.683,1.42,34" transform="translate(499 28)" fill="#d8dde2"/>-->
<!--  <path id="Fill_179" data-name="Fill 179" d="M1.325,27H80c-8.559-1.2-10.393-7.586-14.672-8.489-3.049-.644-12.349,5.117-17.729,4.033C41.8,21.377,30.852,2.8,18.2.269S-3.516,13.5,1.325,27" transform="translate(207)" fill="#d8dde2"/>-->
</svg>
