<svg xmlns="http://www.w3.org/2000/svg" width="46.936" height="37.469" viewBox="0 0 46.936 37.469">
  <g id="users" transform="translate(1.75 1.873)">
    <path id="Path" d="M31.59,11.846V7.9a7.9,7.9,0,0,0-7.9-7.9H7.9A7.9,7.9,0,0,0,0,7.9v3.949" transform="translate(0 22)" fill="none" stroke="#fff" stroke-linecap="round" stroke-linejoin="round" stroke-miterlimit="10" stroke-width="3.5"/>
    <circle id="Oval" cx="7.897" cy="7.897" r="7.897" stroke-width="3.5" transform="translate(7.897 0)" stroke="#fff" stroke-linecap="round" stroke-linejoin="round" stroke-miterlimit="10" fill="none"/>
    <path id="Path-2" data-name="Path" stroke="#fff" d="M5.923,11.589V7.641A7.9,7.9,0,0,0,0,0" fill="none" transform="translate(37.513 22.257)" stroke-linecap="round" stroke-linejoin="round" stroke-miterlimit="10" stroke-width="3.5" opacity="0.4"/>
    <path id="Path-3" data-name="Path" stroke="#fff" d="M0,0A7.9,7.9,0,0,1,5.939,7.651,7.9,7.9,0,0,1,0,15.3" fill="none" transform="translate(29.615 0.257)" stroke-linecap="round" stroke-linejoin="round" stroke-miterlimit="10" stroke-width="3.5" opacity="0.4"/>
  </g>
</svg>
